<svg width="48" height="48" viewBox="0 0 48 48" fill="none" xmlns="http://www.w3.org/2000/svg">
<g id="Add user 01">
<g id="Group 13">
<path id="Vector" d="M26.75 11.75C26.75 15.4779 23.7279 18.5 20 18.5C16.2721 18.5 13.25 15.4779 13.25 11.75C13.25 8.02208 16.2721 5 20 5C23.7279 5 26.75 8.02208 26.75 11.75Z" stroke="#373A40" stroke-width="2"/>
<path id="Ellipse 342" d="M24.0782 40.4776C22.7915 40.8169 21.4214 41 20 41C12.5442 41 6.5 35.9632 6.5 29.75C6.5 23.5368 12.5442 23 20 23C24.3413 23 28.204 23.182 30.6736 24.5606" stroke="#373A40" stroke-width="2" stroke-linecap="round"/>
<path id="Union" d="M28.1012 38.3126L27.3652 38.9895H27.3652L28.1012 38.3126ZM28.1012 31.2192L28.8372 31.8961V31.8961L28.1012 31.2192ZM34.625 31.2188L33.889 31.8958C34.0784 32.1016 34.3453 32.2188 34.625 32.2188C34.9047 32.2188 35.1716 32.1016 35.3609 31.8958L34.625 31.2188ZM41.1488 31.2191L40.4128 31.896V31.896L41.1488 31.2191ZM41.1488 38.3125L41.8848 38.9895L41.1488 38.3125ZM31.3043 41.7952L30.5682 42.4722L31.3043 41.7952ZM37.9461 41.795L37.21 41.1181L37.9461 41.795ZM28.8372 37.6356C27.3876 36.0595 27.3876 33.4722 28.8372 31.8961L27.3652 30.5422C25.2116 32.8837 25.2116 36.6481 27.3652 38.9895L28.8372 37.6356ZM28.8372 31.8961C30.2426 30.3681 32.4836 30.368 33.889 31.8958L35.3609 30.5417C33.1631 28.1527 29.5628 28.1528 27.3652 30.5422L28.8372 31.8961ZM35.3609 31.8958C36.7664 30.368 39.0074 30.3681 40.4128 31.896L41.8848 30.5421C39.6872 28.1528 36.0868 28.1526 33.889 30.5418L35.3609 31.8958ZM40.4128 31.896C41.8624 33.4722 41.8624 36.0594 40.4128 37.6356L41.8848 38.9895C44.0384 36.648 44.0384 32.8836 41.8848 30.5421L40.4128 31.896ZM32.0403 41.1183C30.9726 39.9574 29.9049 38.7965 28.8372 37.6356L27.3652 38.9895C28.4329 40.1504 29.5005 41.3113 30.5682 42.4722L32.0403 41.1183ZM40.4128 37.6356C39.3451 38.7964 38.2776 39.9573 37.21 41.1181L38.6822 42.4719C39.7497 41.3111 40.8172 40.1502 41.8848 38.9895L40.4128 37.6356ZM30.5682 42.4722C32.7485 44.8427 36.5021 44.8426 38.6822 42.4719L37.21 41.1181C35.8223 42.6272 33.4282 42.6273 32.0403 41.1183L30.5682 42.4722Z" fill="#373A40"/>
</g>
</g>
</svg>
