<svg width="48" height="48" viewBox="0 0 48 48" fill="none" xmlns="http://www.w3.org/2000/svg">
<g id="Business user 01">
<g id="Group 17">
<path id="Vector" d="M31.2656 12.125C31.2656 16.06 27.9427 19.25 23.8438 19.25C19.7448 19.25 16.4219 16.06 16.4219 12.125C16.4219 8.18997 19.7448 5 23.8438 5C27.9427 5 31.2656 8.18997 31.2656 12.125Z" stroke="#373A40" stroke-width="2"/>
<path id="Ellipse 342" d="M16.4219 24.3795C11.9851 25.0254 9 26.7295 9 31.125C9 37.6834 15.6458 43 23.8438 43C32.0417 43 38.6875 37.6834 38.6875 31.125C38.6875 26.7295 35.7024 25.0254 31.2656 24.3795" stroke="#373A40" stroke-width="2" stroke-linecap="round"/>
<path id="Ellipse 649" d="M25.3175 24C25.3175 24.7213 24.6965 25.375 23.8436 25.375C22.9907 25.375 22.3696 24.7213 22.3696 24C22.3696 23.2787 22.9907 22.625 23.8436 22.625C24.6965 22.625 25.3175 23.2787 25.3175 24Z" fill="black" stroke="#373A40" stroke-width="2"/>
<path id="Vector 1385" d="M23.8438 28.75V35.875" stroke="#373A40" stroke-width="2" stroke-linecap="round"/>
</g>
</g>
</svg>
