<svg width="24" height="24" viewBox="0 0 24 24" fill="none" xmlns="http://www.w3.org/2000/svg">
<path d="M21 12C21.1263 15.0393 20.7578 18.0789 19.909 21M7.23101 4.36998C8.30379 3.6984 9.50623 3.2608 10.7597 3.08579C12.0132 2.91078 13.2895 3.0023 14.5052 3.35436C15.7209 3.70642 16.8486 4.3111 17.8146 5.12886C18.7806 5.94663 19.5631 6.95906 20.111 8.09998M2.95801 15C2.95801 15 3.00001 14.577 3.00001 12C2.99757 10.0912 3.6055 8.23168 4.73501 6.69298M17.575 9.78098C17.8564 10.4869 18.0007 11.24 18 12C18.0627 14.0878 17.9072 16.1765 17.536 18.232M6.00001 12C6.00043 10.9118 6.29682 9.84413 6.85742 8.91141C7.41803 7.97869 8.22175 7.216 9.18254 6.70499C10.1433 6.19398 11.225 5.9539 12.3118 6.01044C13.3985 6.06698 14.4494 6.41802 15.352 7.02598M4.00001 21C3.99856 19.8149 4.35018 18.6563 5.01001 17.672C5.40046 17.0902 5.66793 16.4348 5.79601 15.746M14.456 18.232C14.2277 19.1568 13.9054 20.0558 13.494 20.915M7.50001 19.336C9.00001 17.092 9.00001 14.845 9.00001 12C9.00001 11.2043 9.31608 10.4413 9.87869 9.87866C10.4413 9.31605 11.2044 8.99998 12 8.99998C12.7957 8.99998 13.5587 9.31605 14.1213 9.87866C14.6839 10.4413 15 11.2043 15 12C15 12.749 15 13.521 14.969 14.311M12 12C12 15 12 18 10 21" stroke="#6B7280" stroke-width="2" stroke-linecap="round" stroke-linejoin="round"/>
</svg>
