<svg width="24" height="24" viewBox="0 0 24 24" fill="none" xmlns="http://www.w3.org/2000/svg">
<path d="M10 3V7C10 7.55228 9.55228 8 9 8H5M13 15.5L15.5 18M19 4V20C19 20.5523 18.5523 21 18 21H6C5.44772 21 5 20.5523 5 20V7.91421C5 7.649 5.10536 7.39464 5.29289 7.20711L9.20711 3.29289C9.39464 3.10536 9.649 3 9.91421 3H18C18.5523 3 19 3.44772 19 4ZM14 13.5C14 14.8807 12.8807 16 11.5 16C10.1193 16 9 14.8807 9 13.5C9 12.1193 10.1193 11 11.5 11C12.8807 11 14 12.1193 14 13.5Z" stroke="#6B7280" stroke-width="2" stroke-linecap="round" stroke-linejoin="round"/>
</svg>
