<svg width="20" height="21" viewBox="0 0 20 21" fill="none" xmlns="http://www.w3.org/2000/svg">
<g id="Frame 28">
<g id="Group 6">
<path id="Vector" d="M10.5 6.8286C10.5 8.3819 9.38071 9.6411 8 9.6411C6.61929 9.6411 5.5 8.3819 5.5 6.8286C5.5 5.2753 6.61929 4.0161 8 4.0161C9.38071 4.0161 10.5 5.2753 10.5 6.8286Z" stroke="#6B7280" stroke-width="1.5"/>
<path id="Ellipse 342" d="M13 14.3286C13 16.9174 10.7614 19.0161 8 19.0161C5.23858 19.0161 3 16.9174 3 14.3286C3 11.7397 5.23858 11.5161 8 11.5161C10.7614 11.5161 13 11.7397 13 14.3286Z" stroke="#6B7280" stroke-width="1.5"/>
<path id="Vector_2" d="M16.3332 8.23485C16.3332 9.52927 15.4004 10.5786 14.2498 10.5786C13.0992 10.5786 12.1665 9.52927 12.1665 8.23485C12.1665 6.94043 13.0992 5.8911 14.2498 5.8911C15.4004 5.8911 16.3332 6.94043 16.3332 8.23485Z" stroke="#6B7280" stroke-width="1.5"/>
<path id="Ellipse 343" d="M14.25 18.0786C16.3211 18.0786 18 16.5046 18 14.5629C18 12.8898 16.7533 12.5339 15.0834 12.4674" stroke="#6B7280" stroke-width="1.5" stroke-linecap="round"/>
</g>
</g>
</svg>
