<svg width="44" height="45" viewBox="0 0 44 45" fill="none" xmlns="http://www.w3.org/2000/svg">
<g id="Frame 33" clip-path="url(#clip0_30_1520)">
<circle id="Ellipse 580" cx="22" cy="22.5" r="22" fill="#373A40"/>
<g id="Group 2">
<path id="Rectangle 2877" d="M15.4272 19.7168C15.7203 16.1453 18.738 13.3071 22.3214 13.2851C25.8722 13.2634 28.7711 16.076 29.1304 19.6086C29.3518 21.7853 29.9645 23.7903 31.1949 25.9246C32.4437 28.0909 31.1091 31.116 28.6087 31.116H16.0374C13.5306 31.116 12.2258 28.0152 13.4881 25.8494C14.6969 23.7754 15.2545 21.8207 15.4272 19.7168Z" stroke="white" stroke-width="1.5"/>
<path id="Vector 1313" d="M22.2095 11V12.4369" stroke="white" stroke-width="1.5" stroke-linecap="round"/>
<path id="Ellipse 578" d="M25.0834 31.1161C25.0834 32.7032 23.7968 33.9898 22.2097 33.9898C20.6225 33.9898 19.3359 32.7032 19.3359 31.1161" stroke="white" stroke-width="1.5"/>
</g>
</g>
<defs>
<clipPath id="clip0_30_1520">
<rect width="44" height="44" fill="white" transform="translate(0 0.5)"/>
</clipPath>
</defs>
</svg>
