<svg width="44" height="44" viewBox="0 0 44 44" fill="none" xmlns="http://www.w3.org/2000/svg">
<g id="Frame 35" clip-path="url(#clip0_30_1510)">
<circle id="Ellipse 580" cx="22" cy="22" r="22" fill="#373A40"/>
<g id="Group 4">
<circle id="Cicle" cx="21.4998" cy="22.5" r="4.2" stroke="white" stroke-width="1.5"/>
<path id="black" d="M23.8044 13.8696C23.2349 11.3768 19.7651 11.3768 19.1956 13.8696C18.9679 14.8666 17.8545 15.3462 17.0008 14.8132L16.7958 14.6851C14.7069 13.3808 12.346 15.8902 13.6851 17.9871C14.2322 18.8438 13.7728 19.9979 12.7962 20.216C10.4013 20.7509 10.4013 24.2491 12.7962 24.784C13.7728 25.0021 14.2322 26.1562 13.6851 27.0129C12.346 29.1098 14.7069 31.6192 16.7958 30.3149L17.0008 30.1868C17.8545 29.6538 18.9679 30.1334 19.1956 31.1304C19.7651 33.6232 23.2349 33.6232 23.8044 31.1304C24.0321 30.1334 25.1455 29.6538 25.9992 30.1868L26.2042 30.3149C28.2931 31.6192 30.654 29.1098 29.3149 27.0129C28.7678 26.1562 29.2272 25.0021 30.2038 24.784C32.5987 24.2491 32.5987 20.7509 30.2038 20.216C29.2272 19.9979 28.7678 18.8438 29.3149 17.9871C30.654 15.8902 28.2931 13.3808 26.2042 14.6851L25.9992 14.8132C25.1455 15.3462 24.0321 14.8666 23.8044 13.8696Z" stroke="white" stroke-width="1.5" stroke-linecap="round" stroke-linejoin="round"/>
</g>
</g>
<defs>
<clipPath id="clip0_30_1510">
<rect width="44" height="44" fill="white"/>
</clipPath>
</defs>
</svg>
