<svg width="15" height="13" viewBox="0 0 15 13" fill="none" xmlns="http://www.w3.org/2000/svg">
<path d="M11.6147 11.7174C11.6049 11.7254 11.5742 11.7418 11.5269 11.7418C11.5235 11.7418 11.5195 11.7417 11.5142 11.7408C11.5081 11.7397 11.4983 11.7377 11.4829 11.733V11.734L11.4692 11.7291C11.4591 11.7258 11.45 11.7222 11.4429 11.7184C11.4396 11.7166 11.437 11.7147 11.4351 11.7135C11.4337 11.7125 11.4324 11.7117 11.4321 11.7115L8.71143 9.48105C8.72056 9.48199 8.72952 9.4829 8.73779 9.48495L8.77588 9.50253L10.6382 11.0279L11.4546 11.6969V0.56308C11.4681 0.55644 11.4899 0.548431 11.52 0.548431C11.5527 0.548505 11.5769 0.55793 11.5923 0.56601V11.7037L12.4087 11.0348L14.2788 9.50253C14.2933 9.49064 14.3178 9.48363 14.3442 9.48105L11.6147 11.7174Z" fill="white" stroke="#373A40"/>
<path d="M6.27234 2.80527L6.23425 2.78867L4.37195 1.2623L3.55554 0.593353V11.7242C3.54011 11.7324 3.51544 11.7418 3.4823 11.7418C3.44948 11.7417 3.42543 11.7323 3.41003 11.7242V0.586517L2.59363 1.25644L0.723511 2.78867C0.709193 2.80032 0.684999 2.80553 0.659058 2.8082L3.38757 0.572845C3.3975 0.564757 3.4282 0.548431 3.47546 0.548431C3.47978 0.548459 3.48671 0.548881 3.49597 0.550385C3.50549 0.551945 3.51609 0.554122 3.52625 0.55722L3.52722 0.555267C3.53223 0.556918 3.53699 0.558693 3.54187 0.56015L3.54089 0.561127C3.55105 0.564469 3.56016 0.568053 3.56726 0.571869C3.57057 0.573649 3.57317 0.575505 3.57507 0.576752L3.578 0.578705L6.29968 2.8082C6.29023 2.80727 6.2809 2.80738 6.27234 2.80527Z" fill="white" stroke="#373A40"/>
</svg>
