<svg width="18" height="18" viewBox="0 0 18 18" fill="none" xmlns="http://www.w3.org/2000/svg">
<path d="M1.31116 7.6058V6.85894C1.31116 3.04841 2.83765 1.5242 6.65387 1.5242H11.2333C15.0496 1.5242 16.5761 3.04841 16.5761 6.85894V11.4316C16.5761 15.2421 15.0496 16.7663 11.2333 16.7663H10.4701" stroke="#373A40" stroke-width="1.5" stroke-linecap="round" stroke-linejoin="round"/>
<path d="M9.70691 8.38353L13.5308 4.55774H10.4702" stroke="#373A40" stroke-width="1.5" stroke-linecap="round" stroke-linejoin="round"/>
<path d="M13.5308 4.55774V7.61378" stroke="#373A40" stroke-width="1.5" stroke-linecap="round" stroke-linejoin="round"/>
<path d="M8.18036 12.308V14.3657C8.18036 16.0804 7.49344 16.7663 5.77614 16.7663H3.71538C1.99808 16.7663 1.31116 16.0804 1.31116 14.3657V12.308C1.31116 10.5933 1.99808 9.90738 3.71538 9.90738H5.77614C7.49344 9.90738 8.18036 10.5933 8.18036 12.308Z" stroke="#373A40" stroke-width="1.5" stroke-linecap="round" stroke-linejoin="round"/>
</svg>
