<svg width="10" height="10" viewBox="0 0 10 10" fill="none" xmlns="http://www.w3.org/2000/svg">
<path d="M4.93995 6.00001C4.66662 6.00001 4.43995 5.77335 4.43995 5.50001V5.36001C4.43995 4.58669 5.00662 4.20668 5.21995 4.06001C5.46662 3.89335 5.54662 3.78002 5.54662 3.60669C5.54662 3.27335 5.27329 3 4.93995 3C4.60662 3 4.33329 3.27335 4.33329 3.60669C4.33329 3.88002 4.10662 4.10669 3.83329 4.10669C3.55998 4.10669 3.33331 3.88002 3.33331 3.60669C3.33331 2.72002 4.05329 2 4.93995 2C5.82662 2 6.54662 2.72002 6.54662 3.60669C6.54662 4.36669 5.98662 4.74668 5.77995 4.88668C5.51995 5.06001 5.43995 5.17335 5.43995 5.36001V5.50001C5.43995 5.78001 5.21329 6.00001 4.93995 6.00001Z" fill="#373A40"/>
<path d="M4.94006 7.66016C4.66006 7.66016 4.44006 7.43349 4.44006 7.16016C4.44006 6.88682 4.66673 6.66016 4.94006 6.66016C5.2134 6.66016 5.44006 6.88682 5.44006 7.16016C5.44006 7.43349 5.22006 7.66016 4.94006 7.66016Z" fill="#373A40"/>
<circle cx="5" cy="5" r="4.5" stroke="#373A40"/>
</svg>
