<?xml version="1.0" standalone="no"?>
<!DOCTYPE svg PUBLIC "-//W3C//DTD SVG 20010904//EN"
 "http://www.w3.org/TR/2001/REC-SVG-20010904/DTD/svg10.dtd">
<svg version="1.0" xmlns="http://www.w3.org/2000/svg"
 width="512.000000pt" height="512.000000pt" viewBox="0 0 512.000000 512.000000"
 preserveAspectRatio="xMidYMid meet">

<g transform="translate(0.000000,512.000000) scale(0.100000,-0.100000)"
fill="#000000" stroke="none">
<path d="M2400 5109 c-278 -34 -522 -156 -705 -351 -133 -141 -215 -280 -279
-470 -53 -159 -68 -265 -64 -450 l3 -156 -38 -37 c-120 -116 -128 -340 -20
-575 61 -132 158 -233 261 -269 44 -16 50 -22 98 -113 60 -110 116 -196 174
-263 l40 -46 0 -169 0 -168 -312 -4 -313 -3 -95 -33 c-268 -93 -461 -291 -564
-580 -48 -135 -56 -216 -56 -568 l0 -324 32 -34 c55 -58 411 -207 713 -299
829 -253 1697 -261 2530 -21 359 102 735 266 770 334 12 24 15 85 15 355 0
290 -2 338 -21 428 -39 191 -119 354 -237 479 -110 117 -205 179 -354 230
l-93 33 -307 3 -308 4 0 179 0 180 58 77 c68 89 115 161 161 249 30 55 38 64
80 78 123 41 242 193 302 385 20 61 24 97 24 195 0 111 -2 124 -28 177 -15 31
-42 69 -60 84 l-32 27 3 161 c4 187 -10 290 -62 450 -143 436 -482 736 -921
816 -85 15 -306 21 -395 9z m369 -270 c348 -62 622 -329 723 -707 23 -86 36
-329 21 -397 -8 -38 -11 -40 -63 -53 -34 -9 -116 -14 -210 -15 -171 -1 -259
15 -397 71 -225 92 -454 302 -598 547 -48 82 -64 96 -121 103 -53 6 -100 -14
-123 -50 -8 -12 -27 -71 -42 -131 -53 -202 -141 -373 -234 -455 -48 -42 -89
-61 -103 -47 -4 4 -7 82 -7 173 1 127 5 182 18 232 57 208 151 374 284 501
151 142 332 221 553 242 61 6 230 -2 299 -14z m-381 -1122 c196 -164 410 -264
647 -303 136 -22 452 -10 581 22 23 6 24 4 24 -52 0 -72 -18 -140 -55 -216
-41 -83 -75 -113 -133 -114 -72 -1 -93 -21 -163 -157 -172 -332 -382 -552
-588 -617 -77 -24 -186 -26 -262 -4 -206 60 -419 281 -595 618 -77 147 -101
170 -173 163 -40 -4 -48 -2 -74 26 -58 62 -116 214 -117 305 0 30 2 32 38 32
123 0 260 49 360 129 76 61 174 189 229 303 l48 98 78 -85 c43 -46 113 -113
155 -148z m524 -1974 c-57 -62 -107 -113 -111 -113 -3 0 -28 7 -55 15 -69 21
-294 20 -366 -1 l-53 -16 -101 101 -101 101 3 147 c2 82 6 150 8 152 2 2 21
-8 43 -22 43 -29 135 -69 196 -86 185 -52 384 -22 565 88 l65 39 5 -146 5
-147 -103 -112z m-925 -134 l167 -170 0 -172 c1 -166 2 -174 28 -227 15 -30
37 -67 49 -81 l21 -26 -56 -314 c-31 -173 -56 -318 -56 -323 0 -21 -304 25
-550 84 -222 54 -508 150 -715 241 l-98 43 6 261 c6 301 16 358 93 514 79 159
222 284 375 325 40 11 120 15 312 15 l258 1 166 -171z m1886 156 c214 -56 376
-241 438 -502 17 -73 22 -131 26 -345 l6 -256 -54 -27 c-75 -38 -325 -136
-442 -174 -228 -73 -510 -135 -742 -165 -60 -8 -111 -13 -112 -12 -1 1 -29
147 -61 326 l-59 324 33 43 c54 70 65 125 63 301 l-2 154 174 174 174 174 250
0 c190 0 265 -4 308 -15z m-1188 -390 c23 -22 25 -31 25 -128 0 -98 -1 -105
-26 -128 -24 -22 -34 -24 -124 -24 -90 0 -100 2 -124 24 -25 23 -26 30 -26
128 0 97 2 106 25 128 22 23 31 25 125 25 94 0 103 -2 125 -25z m-55 -537 c0
-2 22 -129 49 -283 37 -207 46 -282 38 -288 -13 -8 -302 -6 -310 3 -4 4 8 79
79 478 l16 92 64 0 c35 0 64 -1 64 -2z"/>
</g>
</svg>
