<svg xmlns="http://www.w3.org/2000/svg" xmlns:xlink="http://www.w3.org/1999/xlink" width="200" zoomAndPan="magnify" viewBox="0 0 150 348.749987" height="465" preserveAspectRatio="xMidYMid meet" version="1.0"><defs><g/><clipPath id="14d97c5c10"><path d="M 1.5 74 L 148.273438 74 L 148.273438 348.5 L 1.5 348.5 Z M 1.5 74 " clip-rule="nonzero"/></clipPath></defs><g clip-path="url(#14d97c5c10)"><path fill="#000000" d="M 25.820312 202.691406 C 25.246094 192.921875 24.988281 184.019531 24.988281 175.917969 C 24.9375 140.335938 30.113281 120.351562 35.195312 109.921875 L 35.195312 330.308594 C 35.195312 340.34375 43.3125 348.472656 53.320312 348.472656 C 63.328125 348.472656 71.445312 340.34375 71.445312 330.308594 L 71.445312 197.679688 L 78.238281 197.679688 L 78.238281 330.308594 C 78.238281 340.34375 86.355469 348.472656 96.359375 348.472656 C 106.367188 348.472656 114.484375 340.34375 114.484375 330.308594 L 114.484375 109.988281 C 115.355469 111.773438 116.230469 113.824219 117.09375 116.210938 C 121.226562 127.691406 124.703125 146.523438 124.691406 175.921875 C 124.691406 184.023438 124.429688 192.921875 123.859375 202.695312 C 123.480469 209.175781 128.417969 214.738281 134.886719 215.113281 C 135.117188 215.125 135.351562 215.132812 135.582031 215.132812 C 141.742188 215.136719 146.910156 210.3125 147.277344 204.0625 C 147.867188 193.878906 148.144531 184.527344 148.144531 175.921875 C 148.085938 131.578125 141.019531 107.03125 131.382812 92.277344 C 126.566406 84.953125 120.933594 80.253906 115.730469 77.648438 C 110.746094 75.128906 106.363281 74.554688 103.71875 74.515625 C 103.53125 74.507812 103.347656 74.488281 103.15625 74.488281 L 46.523438 74.488281 C 46.351562 74.488281 46.183594 74.507812 46.011719 74.511719 C 43.367188 74.546875 38.960938 75.117188 33.945312 77.648438 C 26.058594 81.566406 17.5625 90.136719 11.613281 105.332031 C 5.59375 120.578125 1.554688 142.628906 1.535156 175.917969 C 1.535156 184.519531 1.808594 193.878906 2.410156 204.066406 C 2.773438 210.3125 7.9375 215.132812 14.097656 215.132812 C 14.332031 215.132812 14.566406 215.125 14.800781 215.109375 C 21.265625 214.730469 26.199219 209.171875 25.820312 202.691406 Z M 25.820312 202.691406 " fill-opacity="1" fill-rule="nonzero"/></g><path fill="#000000" d="M 107.824219 33.058594 C 107.824219 34.140625 107.769531 35.21875 107.664062 36.296875 C 107.558594 37.375 107.398438 38.445312 107.1875 39.507812 C 106.976562 40.570312 106.714844 41.617188 106.402344 42.652344 C 106.089844 43.691406 105.726562 44.707031 105.3125 45.707031 C 104.898438 46.707031 104.4375 47.6875 103.929688 48.640625 C 103.417969 49.59375 102.863281 50.523438 102.265625 51.421875 C 101.664062 52.324219 101.023438 53.191406 100.335938 54.027344 C 99.652344 54.867188 98.925781 55.667969 98.164062 56.433594 C 97.398438 57.199219 96.597656 57.925781 95.765625 58.613281 C 94.929688 59.296875 94.0625 59.941406 93.164062 60.542969 C 92.265625 61.144531 91.339844 61.703125 90.386719 62.210938 C 89.4375 62.722656 88.460938 63.183594 87.460938 63.597656 C 86.464844 64.011719 85.449219 64.378906 84.414062 64.691406 C 83.382812 65.007812 82.335938 65.269531 81.277344 65.480469 C 80.214844 65.691406 79.148438 65.851562 78.074219 65.957031 C 77 66.0625 75.921875 66.113281 74.839844 66.113281 C 73.761719 66.113281 72.683594 66.0625 71.609375 65.957031 C 70.535156 65.851562 69.464844 65.691406 68.40625 65.480469 C 67.347656 65.269531 66.300781 65.007812 65.265625 64.691406 C 64.234375 64.378906 63.21875 64.011719 62.21875 63.597656 C 61.222656 63.183594 60.246094 62.722656 59.292969 62.210938 C 58.339844 61.703125 57.417969 61.144531 56.519531 60.542969 C 55.621094 59.941406 54.753906 59.296875 53.917969 58.613281 C 53.082031 57.925781 52.285156 57.199219 51.519531 56.433594 C 50.757812 55.667969 50.03125 54.867188 49.347656 54.027344 C 48.660156 53.191406 48.019531 52.324219 47.417969 51.421875 C 46.816406 50.523438 46.261719 49.59375 45.753906 48.640625 C 45.246094 47.6875 44.785156 46.707031 44.371094 45.707031 C 43.957031 44.707031 43.59375 43.691406 43.28125 42.652344 C 42.964844 41.617188 42.703125 40.570312 42.492188 39.507812 C 42.28125 38.445312 42.125 37.375 42.019531 36.296875 C 41.914062 35.21875 41.859375 34.140625 41.859375 33.058594 C 41.859375 31.976562 41.914062 30.894531 42.019531 29.816406 C 42.125 28.738281 42.28125 27.671875 42.492188 26.609375 C 42.703125 25.546875 42.964844 24.496094 43.28125 23.460938 C 43.59375 22.425781 43.957031 21.40625 44.371094 20.40625 C 44.785156 19.40625 45.246094 18.429688 45.753906 17.472656 C 46.261719 16.519531 46.816406 15.59375 47.417969 14.691406 C 48.019531 13.792969 48.660156 12.921875 49.347656 12.085938 C 50.03125 11.25 50.757812 10.449219 51.519531 9.683594 C 52.285156 8.917969 53.082031 8.191406 53.917969 7.503906 C 54.753906 6.816406 55.621094 6.171875 56.519531 5.570312 C 57.417969 4.96875 58.339844 4.414062 59.292969 3.902344 C 60.246094 3.394531 61.222656 2.929688 62.21875 2.515625 C 63.21875 2.101562 64.234375 1.738281 65.265625 1.421875 C 66.300781 1.109375 67.347656 0.847656 68.40625 0.636719 C 69.464844 0.425781 70.535156 0.265625 71.609375 0.160156 C 72.683594 0.0546875 73.761719 0 74.839844 0 C 75.921875 0 77 0.0546875 78.074219 0.160156 C 79.148438 0.265625 80.214844 0.425781 81.277344 0.636719 C 82.335938 0.847656 83.382812 1.109375 84.414062 1.421875 C 85.449219 1.738281 86.464844 2.101562 87.460938 2.515625 C 88.460938 2.929688 89.4375 3.394531 90.386719 3.902344 C 91.339844 4.414062 92.265625 4.96875 93.164062 5.570312 C 94.0625 6.171875 94.929688 6.816406 95.765625 7.503906 C 96.597656 8.191406 97.398438 8.917969 98.164062 9.683594 C 98.925781 10.449219 99.652344 11.25 100.335938 12.085938 C 101.023438 12.921875 101.664062 13.792969 102.265625 14.691406 C 102.863281 15.59375 103.417969 16.519531 103.929688 17.472656 C 104.4375 18.429688 104.898438 19.40625 105.3125 20.40625 C 105.726562 21.40625 106.089844 22.425781 106.402344 23.460938 C 106.714844 24.496094 106.976562 25.546875 107.1875 26.609375 C 107.398438 27.671875 107.558594 28.738281 107.664062 29.816406 C 107.769531 30.894531 107.824219 31.976562 107.824219 33.058594 Z M 107.824219 33.058594 " fill-opacity="1" fill-rule="nonzero"/><g fill="#000000" fill-opacity="1"><g transform="translate(32.485555, 108.28472)"><g><path d="M 0.9375 0 L 0.9375 -7.390625 L 2.5 -7.390625 L 2.5 0 Z M 0.9375 0 "/></g></g></g><g fill="#000000" fill-opacity="1"><g transform="translate(35.916494, 108.28472)"><g><path d="M 6.03125 0 L 4.484375 0 L 4.484375 -3.296875 C 4.484375 -3.710938 4.410156 -4.019531 4.265625 -4.21875 C 4.117188 -4.425781 3.890625 -4.53125 3.578125 -4.53125 C 3.140625 -4.53125 2.828125 -4.382812 2.640625 -4.09375 C 2.453125 -3.800781 2.359375 -3.320312 2.359375 -2.65625 L 2.359375 0 L 0.8125 0 L 0.8125 -5.65625 L 1.984375 -5.65625 L 2.1875 -4.9375 L 2.28125 -4.9375 C 2.457031 -5.207031 2.691406 -5.410156 2.984375 -5.546875 C 3.285156 -5.691406 3.628906 -5.765625 4.015625 -5.765625 C 4.671875 -5.765625 5.171875 -5.582031 5.515625 -5.21875 C 5.859375 -4.863281 6.03125 -4.351562 6.03125 -3.6875 Z M 6.03125 0 "/></g></g></g><g fill="#000000" fill-opacity="1"><g transform="translate(42.727769, 108.28472)"><g><path d="M 4.75 -1.671875 C 4.75 -1.097656 4.546875 -0.660156 4.140625 -0.359375 C 3.742188 -0.0546875 3.144531 0.09375 2.34375 0.09375 C 1.925781 0.09375 1.570312 0.0664062 1.28125 0.015625 C 1 -0.0351562 0.726562 -0.117188 0.46875 -0.234375 L 0.46875 -1.5 C 0.757812 -1.363281 1.082031 -1.25 1.4375 -1.15625 C 1.800781 -1.070312 2.117188 -1.03125 2.390625 -1.03125 C 2.953125 -1.03125 3.234375 -1.191406 3.234375 -1.515625 C 3.234375 -1.628906 3.195312 -1.722656 3.125 -1.796875 C 3.050781 -1.878906 2.921875 -1.96875 2.734375 -2.0625 C 2.554688 -2.15625 2.316406 -2.269531 2.015625 -2.40625 C 1.578125 -2.582031 1.253906 -2.75 1.046875 -2.90625 C 0.847656 -3.0625 0.703125 -3.238281 0.609375 -3.4375 C 0.515625 -3.644531 0.46875 -3.894531 0.46875 -4.1875 C 0.46875 -4.6875 0.660156 -5.070312 1.046875 -5.34375 C 1.441406 -5.625 1.992188 -5.765625 2.703125 -5.765625 C 3.390625 -5.765625 4.050781 -5.613281 4.6875 -5.3125 L 4.234375 -4.203125 C 3.941406 -4.328125 3.671875 -4.425781 3.421875 -4.5 C 3.179688 -4.582031 2.9375 -4.625 2.6875 -4.625 C 2.226562 -4.625 2 -4.5 2 -4.25 C 2 -4.113281 2.070312 -3.992188 2.21875 -3.890625 C 2.363281 -3.785156 2.6875 -3.632812 3.1875 -3.4375 C 3.625 -3.257812 3.945312 -3.09375 4.15625 -2.9375 C 4.363281 -2.78125 4.515625 -2.597656 4.609375 -2.390625 C 4.703125 -2.191406 4.75 -1.953125 4.75 -1.671875 Z M 4.75 -1.671875 "/></g></g></g><g fill="#000000" fill-opacity="1"><g transform="translate(47.879239, 108.28472)"><g><path d="M 3.15625 -4.65625 C 2.820312 -4.65625 2.5625 -4.550781 2.375 -4.34375 C 2.195312 -4.144531 2.09375 -3.851562 2.0625 -3.46875 L 4.234375 -3.46875 C 4.222656 -3.851562 4.117188 -4.144531 3.921875 -4.34375 C 3.734375 -4.550781 3.476562 -4.65625 3.15625 -4.65625 Z M 3.375 0.09375 C 2.457031 0.09375 1.742188 -0.15625 1.234375 -0.65625 C 0.722656 -1.15625 0.46875 -1.863281 0.46875 -2.78125 C 0.46875 -3.726562 0.703125 -4.460938 1.171875 -4.984375 C 1.648438 -5.503906 2.304688 -5.765625 3.140625 -5.765625 C 3.941406 -5.765625 4.5625 -5.535156 5 -5.078125 C 5.445312 -4.617188 5.671875 -3.988281 5.671875 -3.1875 L 5.671875 -2.4375 L 2.03125 -2.4375 C 2.039062 -2 2.164062 -1.65625 2.40625 -1.40625 C 2.65625 -1.164062 3 -1.046875 3.4375 -1.046875 C 3.78125 -1.046875 4.101562 -1.082031 4.40625 -1.15625 C 4.707031 -1.226562 5.023438 -1.34375 5.359375 -1.5 L 5.359375 -0.296875 C 5.085938 -0.160156 4.796875 -0.0625 4.484375 0 C 4.179688 0.0625 3.8125 0.09375 3.375 0.09375 Z M 3.375 0.09375 "/></g></g></g><g fill="#000000" fill-opacity="1"><g transform="translate(54.002302, 108.28472)"><g><path d="M 3.96875 -5.765625 C 4.175781 -5.765625 4.347656 -5.75 4.484375 -5.71875 L 4.375 -4.265625 C 4.25 -4.296875 4.097656 -4.3125 3.921875 -4.3125 C 3.421875 -4.3125 3.035156 -4.1875 2.765625 -3.9375 C 2.492188 -3.6875 2.359375 -3.332031 2.359375 -2.875 L 2.359375 0 L 0.8125 0 L 0.8125 -5.65625 L 1.984375 -5.65625 L 2.203125 -4.703125 L 2.28125 -4.703125 C 2.457031 -5.023438 2.691406 -5.28125 2.984375 -5.46875 C 3.285156 -5.664062 3.613281 -5.765625 3.96875 -5.765625 Z M 3.96875 -5.765625 "/></g></g></g><g fill="#000000" fill-opacity="1"><g transform="translate(58.708458, 108.28472)"><g><path d="M 0.75 -7.109375 C 0.75 -7.617188 1.023438 -7.875 1.578125 -7.875 C 2.140625 -7.875 2.421875 -7.617188 2.421875 -7.109375 C 2.421875 -6.878906 2.347656 -6.695312 2.203125 -6.5625 C 2.066406 -6.425781 1.859375 -6.359375 1.578125 -6.359375 C 1.023438 -6.359375 0.75 -6.609375 0.75 -7.109375 Z M 2.359375 0 L 0.8125 0 L 0.8125 -5.65625 L 2.359375 -5.65625 Z M 2.359375 0 "/></g></g></g><g fill="#000000" fill-opacity="1"><g transform="translate(61.871203, 108.28472)"><g><path d="M 3.96875 -5.765625 C 4.175781 -5.765625 4.347656 -5.75 4.484375 -5.71875 L 4.375 -4.265625 C 4.25 -4.296875 4.097656 -4.3125 3.921875 -4.3125 C 3.421875 -4.3125 3.035156 -4.1875 2.765625 -3.9375 C 2.492188 -3.6875 2.359375 -3.332031 2.359375 -2.875 L 2.359375 0 L 0.8125 0 L 0.8125 -5.65625 L 1.984375 -5.65625 L 2.203125 -4.703125 L 2.28125 -4.703125 C 2.457031 -5.023438 2.691406 -5.28125 2.984375 -5.46875 C 3.285156 -5.664062 3.613281 -5.765625 3.96875 -5.765625 Z M 3.96875 -5.765625 "/></g></g></g><g fill="#000000" fill-opacity="1"><g transform="translate(66.577359, 108.28472)"><g/></g></g><g fill="#000000" fill-opacity="1"><g transform="translate(69.269482, 108.28472)"><g><path d="M 4.8125 0 L 4.609375 -0.71875 L 4.53125 -0.71875 C 4.363281 -0.457031 4.128906 -0.253906 3.828125 -0.109375 C 3.523438 0.0234375 3.175781 0.09375 2.78125 0.09375 C 2.125 0.09375 1.625 -0.0820312 1.28125 -0.4375 C 0.945312 -0.789062 0.78125 -1.300781 0.78125 -1.96875 L 0.78125 -5.65625 L 2.328125 -5.65625 L 2.328125 -2.359375 C 2.328125 -1.941406 2.394531 -1.628906 2.53125 -1.421875 C 2.675781 -1.222656 2.910156 -1.125 3.234375 -1.125 C 3.660156 -1.125 3.96875 -1.269531 4.15625 -1.5625 C 4.351562 -1.851562 4.453125 -2.332031 4.453125 -3 L 4.453125 -5.65625 L 6 -5.65625 L 6 0 Z M 4.8125 0 "/></g></g></g><g fill="#000000" fill-opacity="1"><g transform="translate(76.080757, 108.28472)"><g><path d="M 5.875 0 L 4.328125 0 L 4.328125 -3.296875 C 4.328125 -3.710938 4.257812 -4.019531 4.125 -4.21875 C 3.988281 -4.425781 3.773438 -4.53125 3.484375 -4.53125 C 3.085938 -4.53125 2.800781 -4.382812 2.625 -4.09375 C 2.445312 -3.800781 2.359375 -3.320312 2.359375 -2.65625 L 2.359375 0 L 0.8125 0 L 0.8125 -5.65625 L 1.984375 -5.65625 L 2.1875 -4.9375 L 2.28125 -4.9375 C 2.4375 -5.195312 2.65625 -5.398438 2.9375 -5.546875 C 3.226562 -5.691406 3.554688 -5.765625 3.921875 -5.765625 C 4.765625 -5.765625 5.335938 -5.488281 5.640625 -4.9375 L 5.78125 -4.9375 C 5.9375 -5.195312 6.160156 -5.398438 6.453125 -5.546875 C 6.742188 -5.691406 7.078125 -5.765625 7.453125 -5.765625 C 8.085938 -5.765625 8.566406 -5.597656 8.890625 -5.265625 C 9.222656 -4.941406 9.390625 -4.414062 9.390625 -3.6875 L 9.390625 0 L 7.84375 0 L 7.84375 -3.296875 C 7.84375 -3.710938 7.773438 -4.019531 7.640625 -4.21875 C 7.503906 -4.425781 7.289062 -4.53125 7 -4.53125 C 6.625 -4.53125 6.34375 -4.394531 6.15625 -4.125 C 5.96875 -3.851562 5.875 -3.425781 5.875 -2.84375 Z M 5.875 0 "/></g></g></g><g fill="#000000" fill-opacity="1"><g transform="translate(86.257193, 108.28472)"><g/></g></g><g fill="#000000" fill-opacity="1"><g transform="translate(88.949316, 108.28472)"><g><path d="M 3.1875 -1.125 C 3.457031 -1.125 3.78125 -1.1875 4.15625 -1.3125 L 4.15625 -0.15625 C 3.78125 0.0078125 3.3125 0.09375 2.75 0.09375 C 2.132812 0.09375 1.679688 -0.0546875 1.390625 -0.359375 C 1.109375 -0.671875 0.96875 -1.140625 0.96875 -1.765625 L 0.96875 -4.5 L 0.234375 -4.5 L 0.234375 -5.15625 L 1.09375 -5.671875 L 1.53125 -6.859375 L 2.515625 -6.859375 L 2.515625 -5.65625 L 4.109375 -5.65625 L 4.109375 -4.5 L 2.515625 -4.5 L 2.515625 -1.765625 C 2.515625 -1.546875 2.578125 -1.382812 2.703125 -1.28125 C 2.828125 -1.175781 2.988281 -1.125 3.1875 -1.125 Z M 3.1875 -1.125 "/></g></g></g><g fill="#000000" fill-opacity="1"><g transform="translate(93.448002, 108.28472)"><g><path d="M 2.359375 0 L 0.8125 0 L 0.8125 -5.65625 L 2.359375 -5.65625 Z M 0.71875 -6.28125 L 0.71875 -6.40625 C 1.300781 -7.082031 1.703125 -7.59375 1.921875 -7.9375 L 3.640625 -7.9375 L 3.640625 -7.828125 C 3.460938 -7.648438 3.160156 -7.390625 2.734375 -7.046875 C 2.316406 -6.703125 1.988281 -6.445312 1.75 -6.28125 Z M 0.71875 -6.28125 "/></g></g></g><g fill="#000000" fill-opacity="1"><g transform="translate(96.610747, 108.28472)"><g><path d="M 3.1875 -1.125 C 3.457031 -1.125 3.78125 -1.1875 4.15625 -1.3125 L 4.15625 -0.15625 C 3.78125 0.0078125 3.3125 0.09375 2.75 0.09375 C 2.132812 0.09375 1.679688 -0.0546875 1.390625 -0.359375 C 1.109375 -0.671875 0.96875 -1.140625 0.96875 -1.765625 L 0.96875 -4.5 L 0.234375 -4.5 L 0.234375 -5.15625 L 1.09375 -5.671875 L 1.53125 -6.859375 L 2.515625 -6.859375 L 2.515625 -5.65625 L 4.109375 -5.65625 L 4.109375 -4.5 L 2.515625 -4.5 L 2.515625 -1.765625 C 2.515625 -1.546875 2.578125 -1.382812 2.703125 -1.28125 C 2.828125 -1.175781 2.988281 -1.125 3.1875 -1.125 Z M 3.1875 -1.125 "/></g></g></g><g fill="#000000" fill-opacity="1"><g transform="translate(101.109433, 108.28472)"><g><path d="M 4.8125 0 L 4.609375 -0.71875 L 4.53125 -0.71875 C 4.363281 -0.457031 4.128906 -0.253906 3.828125 -0.109375 C 3.523438 0.0234375 3.175781 0.09375 2.78125 0.09375 C 2.125 0.09375 1.625 -0.0820312 1.28125 -0.4375 C 0.945312 -0.789062 0.78125 -1.300781 0.78125 -1.96875 L 0.78125 -5.65625 L 2.328125 -5.65625 L 2.328125 -2.359375 C 2.328125 -1.941406 2.394531 -1.628906 2.53125 -1.421875 C 2.675781 -1.222656 2.910156 -1.125 3.234375 -1.125 C 3.660156 -1.125 3.96875 -1.269531 4.15625 -1.5625 C 4.351562 -1.851562 4.453125 -2.332031 4.453125 -3 L 4.453125 -5.65625 L 6 -5.65625 L 6 0 Z M 4.8125 0 "/></g></g></g><g fill="#000000" fill-opacity="1"><g transform="translate(107.920708, 108.28472)"><g><path d="M 2.359375 0 L 0.8125 0 L 0.8125 -7.875 L 2.359375 -7.875 Z M 2.359375 0 "/></g></g></g><g fill="#000000" fill-opacity="1"><g transform="translate(111.083453, 108.28472)"><g><path d="M 2.03125 -2.84375 C 2.03125 -2.28125 2.125 -1.851562 2.3125 -1.5625 C 2.5 -1.28125 2.800781 -1.140625 3.21875 -1.140625 C 3.625 -1.140625 3.914062 -1.28125 4.09375 -1.5625 C 4.28125 -1.851562 4.375 -2.28125 4.375 -2.84375 C 4.375 -3.394531 4.28125 -3.8125 4.09375 -4.09375 C 3.914062 -4.375 3.617188 -4.515625 3.203125 -4.515625 C 2.785156 -4.515625 2.484375 -4.375 2.296875 -4.09375 C 2.117188 -3.820312 2.03125 -3.40625 2.03125 -2.84375 Z M 5.953125 -2.84375 C 5.953125 -1.914062 5.707031 -1.191406 5.21875 -0.671875 C 4.726562 -0.160156 4.050781 0.09375 3.1875 0.09375 C 2.644531 0.09375 2.164062 -0.0195312 1.75 -0.25 C 1.34375 -0.488281 1.023438 -0.832031 0.796875 -1.28125 C 0.578125 -1.726562 0.46875 -2.25 0.46875 -2.84375 C 0.46875 -3.757812 0.707031 -4.472656 1.1875 -4.984375 C 1.664062 -5.503906 2.34375 -5.765625 3.21875 -5.765625 C 3.757812 -5.765625 4.238281 -5.644531 4.65625 -5.40625 C 5.070312 -5.164062 5.390625 -4.828125 5.609375 -4.390625 C 5.835938 -3.953125 5.953125 -3.4375 5.953125 -2.84375 Z M 5.953125 -2.84375 "/></g></g></g></svg>