<svg width="24" height="24" viewBox="0 0 24 24" fill="none" xmlns="http://www.w3.org/2000/svg">
<path d="M10.0001 6.025C8.56168 6.11939 7.18092 6.62632 6.02312 7.4851C4.86532 8.34389 3.97954 9.51814 3.47182 10.8673C2.96409 12.2165 2.85593 13.6833 3.16028 15.0924C3.46463 16.5014 4.1686 17.7929 5.18791 18.8122C6.20723 19.8315 7.4987 20.5355 8.90774 20.8398C10.3168 21.1442 11.7837 21.036 13.1328 20.5283C14.482 20.0206 15.6562 19.1348 16.515 17.977C17.3738 16.8192 17.8807 15.4384 17.9751 14H10.0001V6.025Z" stroke="#6B7280" stroke-width="2" stroke-linecap="round" stroke-linejoin="round"/>
<path d="M13.5001 3C13.3311 3 13.1661 3.014 13.0001 3.025V11H20.9751C20.9861 10.834 21.0001 10.669 21.0001 10.5C21.0001 8.51088 20.2099 6.60322 18.8034 5.1967C17.3969 3.79018 15.4892 3 13.5001 3Z" stroke="#6B7280" stroke-width="2" stroke-linecap="round" stroke-linejoin="round"/>
</svg>
