<?xml version="1.0" standalone="no"?>
<!DOCTYPE svg PUBLIC "-//W3C//DTD SVG 20010904//EN"
 "http://www.w3.org/TR/2001/REC-SVG-20010904/DTD/svg10.dtd">
<svg version="1.0" xmlns="http://www.w3.org/2000/svg"
 width="512.000000pt" height="512.000000pt" viewBox="0 0 512.000000 512.000000"
 preserveAspectRatio="xMidYMid meet">

<g transform="translate(0.000000,512.000000) scale(0.100000,-0.100000)"
fill="#000000" stroke="none">
<path d="M2380 5110 c-483 -68 -858 -362 -1002 -784 -74 -218 -71 -179 -77
-1265 l-6 -973 -75 -27 c-352 -129 -535 -371 -579 -765 -7 -56 -11 -324 -11
-649 l0 -554 23 -34 c12 -18 34 -39 47 -46 36 -19 3684 -19 3720 0 13 7 35 28
48 47 l23 35 -4 615 c-4 657 -5 667 -58 830 -80 245 -251 416 -519 517 l-85
32 -6 973 c-4 857 -7 983 -22 1060 -51 262 -154 464 -321 633 -174 174 -382
284 -651 340 -94 20 -349 28 -445 15z m451 -263 c195 -51 349 -134 470 -256
160 -161 246 -357 268 -608 11 -122 16 -1815 5 -1825 -10 -11 -262 60 -337 95
-126 59 -195 142 -212 259 -7 48 -7 48 51 110 179 194 307 511 360 893 20 144
33 437 22 482 -12 45 -59 81 -116 88 -206 25 -359 95 -551 252 -40 33 -102 38
-142 11 -14 -9 -48 -56 -75 -104 -146 -260 -435 -442 -734 -461 -165 -10 -182
-30 -181 -200 3 -251 60 -500 162 -706 55 -111 112 -191 200 -282 l77 -80 -19
-61 c-27 -87 -80 -144 -182 -194 -102 -49 -346 -116 -353 -96 -3 8 -3 429 -1
937 3 889 4 927 24 1014 56 243 165 420 344 555 132 99 310 172 484 200 107
16 328 5 436 -23z m-24 -824 c107 -68 258 -130 386 -157 26 -6 27 -9 27 -69 0
-34 -7 -118 -15 -187 -47 -402 -163 -692 -347 -865 -158 -150 -337 -182 -518
-94 -87 43 -219 176 -278 280 -79 141 -141 353 -158 540 l-6 76 54 6 c154 18
377 112 515 216 85 64 206 186 249 251 15 22 28 40 30 40 2 0 29 -16 61 -37z
m-1 -1630 c13 -45 78 -164 110 -201 20 -23 65 -63 101 -89 63 -45 230 -122
266 -123 28 0 21 -37 -27 -135 -91 -185 -251 -314 -473 -377 -113 -32 -333
-32 -446 0 -222 63 -382 192 -473 377 -46 95 -55 135 -29 135 34 0 178 64 247
109 93 61 150 125 199 227 l39 81 53 -14 c92 -24 195 -27 287 -9 47 10 91 22
100 26 24 14 40 12 46 -7z m-1220 -500 c125 -406 476 -669 920 -690 296 -14
564 79 765 264 110 102 191 225 240 363 l27 75 37 -3 c65 -5 266 -72 350 -115
112 -58 190 -138 243 -247 73 -153 75 -167 79 -767 l4 -533 -215 0 -216 0 0
318 c0 185 -4 332 -10 354 -15 54 -61 88 -117 88 -38 0 -50 -5 -79 -34 l-34
-34 0 -346 0 -346 -1020 0 -1020 0 0 346 0 346 -34 34 c-29 29 -41 34 -79 34
-56 0 -102 -34 -117 -88 -6 -22 -10 -169 -10 -354 l0 -318 -216 0 -215 0 4
532 c4 601 6 615 79 768 85 177 221 268 518 346 106 28 109 28 116 7z"/>
</g>
</svg>
