<svg xmlns="http://www.w3.org/2000/svg" xmlns:xlink="http://www.w3.org/1999/xlink" width="200" zoomAndPan="magnify" viewBox="0 0 150 348.749987" height="465" preserveAspectRatio="xMidYMid meet" version="1.0"><defs><g/><clipPath id="4a2ce7eced"><path d="M 0.0546875 63 L 149 63 L 149 348 L 0.0546875 348 Z M 0.0546875 63 " clip-rule="nonzero"/></clipPath></defs><path fill="#000000" d="M 74.398438 56.6875 C 88.878906 56.6875 100.621094 44.007812 100.621094 28.367188 C 100.621094 12.726562 88.878906 0.046875 74.398438 0.046875 C 59.917969 0.046875 48.175781 12.726562 48.175781 28.367188 C 48.175781 44.007812 59.917969 56.6875 74.398438 56.6875 Z M 74.398438 56.6875 " fill-opacity="1" fill-rule="nonzero"/><g clip-path="url(#4a2ce7eced)"><path fill="#000000" d="M 70.519531 236.355469 L 70.53125 334.441406 C 70.53125 352.265625 45.804688 352.265625 45.804688 334.441406 L 45.792969 237.035156 L 12.589844 237.035156 L 48.085938 104.023438 L 42.578125 104.023438 L 21.929688 179.0625 C 17.015625 195.425781 -3.789062 188.703125 0.96875 171.179688 L 23.894531 89.660156 C 26.351562 80.363281 37.238281 63.882812 56.082031 63.882812 L 92.15625 63.882812 C 110.832031 63.882812 121.765625 80.5 124.589844 89.660156 L 147.523438 171.101562 C 152.113281 188.617188 131.472656 195.871094 126.558594 178.796875 L 105.914062 104.027344 L 99.949219 104.027344 L 135.730469 237.039062 L 102.476562 237.039062 L 102.476562 334.582031 C 102.476562 352.273438 77.851562 352.1875 77.851562 334.582031 L 77.851562 236.359375 L 70.519531 236.359375 Z M 70.519531 236.355469 " fill-opacity="1" fill-rule="nonzero"/></g><g fill="#000000" fill-opacity="1"><g transform="translate(59.945256, 108.28472)"><g><path d="M 0.9375 0 L 0.9375 -7.390625 L 2.5 -7.390625 L 2.5 0 Z M 0.9375 0 "/></g></g></g><g fill="#000000" fill-opacity="1"><g transform="translate(63.376195, 108.28472)"><g><path d="M 6.03125 0 L 4.484375 0 L 4.484375 -3.296875 C 4.484375 -3.710938 4.410156 -4.019531 4.265625 -4.21875 C 4.117188 -4.425781 3.890625 -4.53125 3.578125 -4.53125 C 3.140625 -4.53125 2.828125 -4.382812 2.640625 -4.09375 C 2.453125 -3.800781 2.359375 -3.320312 2.359375 -2.65625 L 2.359375 0 L 0.8125 0 L 0.8125 -5.65625 L 1.984375 -5.65625 L 2.1875 -4.9375 L 2.28125 -4.9375 C 2.457031 -5.207031 2.691406 -5.410156 2.984375 -5.546875 C 3.285156 -5.691406 3.628906 -5.765625 4.015625 -5.765625 C 4.671875 -5.765625 5.171875 -5.582031 5.515625 -5.21875 C 5.859375 -4.863281 6.03125 -4.351562 6.03125 -3.6875 Z M 6.03125 0 "/></g></g></g><g fill="#000000" fill-opacity="1"><g transform="translate(70.187471, 108.28472)"><g><path d="M 4.75 -1.671875 C 4.75 -1.097656 4.546875 -0.660156 4.140625 -0.359375 C 3.742188 -0.0546875 3.144531 0.09375 2.34375 0.09375 C 1.925781 0.09375 1.570312 0.0664062 1.28125 0.015625 C 1 -0.0351562 0.726562 -0.117188 0.46875 -0.234375 L 0.46875 -1.5 C 0.757812 -1.363281 1.082031 -1.25 1.4375 -1.15625 C 1.800781 -1.070312 2.117188 -1.03125 2.390625 -1.03125 C 2.953125 -1.03125 3.234375 -1.191406 3.234375 -1.515625 C 3.234375 -1.628906 3.195312 -1.722656 3.125 -1.796875 C 3.050781 -1.878906 2.921875 -1.96875 2.734375 -2.0625 C 2.554688 -2.15625 2.316406 -2.269531 2.015625 -2.40625 C 1.578125 -2.582031 1.253906 -2.75 1.046875 -2.90625 C 0.847656 -3.0625 0.703125 -3.238281 0.609375 -3.4375 C 0.515625 -3.644531 0.46875 -3.894531 0.46875 -4.1875 C 0.46875 -4.6875 0.660156 -5.070312 1.046875 -5.34375 C 1.441406 -5.625 1.992188 -5.765625 2.703125 -5.765625 C 3.390625 -5.765625 4.050781 -5.613281 4.6875 -5.3125 L 4.234375 -4.203125 C 3.941406 -4.328125 3.671875 -4.425781 3.421875 -4.5 C 3.179688 -4.582031 2.9375 -4.625 2.6875 -4.625 C 2.226562 -4.625 2 -4.5 2 -4.25 C 2 -4.113281 2.070312 -3.992188 2.21875 -3.890625 C 2.363281 -3.785156 2.6875 -3.632812 3.1875 -3.4375 C 3.625 -3.257812 3.945312 -3.09375 4.15625 -2.9375 C 4.363281 -2.78125 4.515625 -2.597656 4.609375 -2.390625 C 4.703125 -2.191406 4.75 -1.953125 4.75 -1.671875 Z M 4.75 -1.671875 "/></g></g></g><g fill="#000000" fill-opacity="1"><g transform="translate(75.33894, 108.28472)"><g><path d="M 3.15625 -4.65625 C 2.820312 -4.65625 2.5625 -4.550781 2.375 -4.34375 C 2.195312 -4.144531 2.09375 -3.851562 2.0625 -3.46875 L 4.234375 -3.46875 C 4.222656 -3.851562 4.117188 -4.144531 3.921875 -4.34375 C 3.734375 -4.550781 3.476562 -4.65625 3.15625 -4.65625 Z M 3.375 0.09375 C 2.457031 0.09375 1.742188 -0.15625 1.234375 -0.65625 C 0.722656 -1.15625 0.46875 -1.863281 0.46875 -2.78125 C 0.46875 -3.726562 0.703125 -4.460938 1.171875 -4.984375 C 1.648438 -5.503906 2.304688 -5.765625 3.140625 -5.765625 C 3.941406 -5.765625 4.5625 -5.535156 5 -5.078125 C 5.445312 -4.617188 5.671875 -3.988281 5.671875 -3.1875 L 5.671875 -2.4375 L 2.03125 -2.4375 C 2.039062 -2 2.164062 -1.65625 2.40625 -1.40625 C 2.65625 -1.164062 3 -1.046875 3.4375 -1.046875 C 3.78125 -1.046875 4.101562 -1.082031 4.40625 -1.15625 C 4.707031 -1.226562 5.023438 -1.34375 5.359375 -1.5 L 5.359375 -0.296875 C 5.085938 -0.160156 4.796875 -0.0625 4.484375 0 C 4.179688 0.0625 3.8125 0.09375 3.375 0.09375 Z M 3.375 0.09375 "/></g></g></g><g fill="#000000" fill-opacity="1"><g transform="translate(81.462003, 108.28472)"><g><path d="M 3.96875 -5.765625 C 4.175781 -5.765625 4.347656 -5.75 4.484375 -5.71875 L 4.375 -4.265625 C 4.25 -4.296875 4.097656 -4.3125 3.921875 -4.3125 C 3.421875 -4.3125 3.035156 -4.1875 2.765625 -3.9375 C 2.492188 -3.6875 2.359375 -3.332031 2.359375 -2.875 L 2.359375 0 L 0.8125 0 L 0.8125 -5.65625 L 1.984375 -5.65625 L 2.203125 -4.703125 L 2.28125 -4.703125 C 2.457031 -5.023438 2.691406 -5.28125 2.984375 -5.46875 C 3.285156 -5.664062 3.613281 -5.765625 3.96875 -5.765625 Z M 3.96875 -5.765625 "/></g></g></g><g fill="#000000" fill-opacity="1"><g transform="translate(86.168159, 108.28472)"><g><path d="M 0.75 -7.109375 C 0.75 -7.617188 1.023438 -7.875 1.578125 -7.875 C 2.140625 -7.875 2.421875 -7.617188 2.421875 -7.109375 C 2.421875 -6.878906 2.347656 -6.695312 2.203125 -6.5625 C 2.066406 -6.425781 1.859375 -6.359375 1.578125 -6.359375 C 1.023438 -6.359375 0.75 -6.609375 0.75 -7.109375 Z M 2.359375 0 L 0.8125 0 L 0.8125 -5.65625 L 2.359375 -5.65625 Z M 2.359375 0 "/></g></g></g><g fill="#000000" fill-opacity="1"><g transform="translate(62.451272, 122.524511)"><g><path d="M 3.96875 -5.765625 C 4.175781 -5.765625 4.347656 -5.75 4.484375 -5.71875 L 4.375 -4.265625 C 4.25 -4.296875 4.097656 -4.3125 3.921875 -4.3125 C 3.421875 -4.3125 3.035156 -4.1875 2.765625 -3.9375 C 2.492188 -3.6875 2.359375 -3.332031 2.359375 -2.875 L 2.359375 0 L 0.8125 0 L 0.8125 -5.65625 L 1.984375 -5.65625 L 2.203125 -4.703125 L 2.28125 -4.703125 C 2.457031 -5.023438 2.691406 -5.28125 2.984375 -5.46875 C 3.285156 -5.664062 3.613281 -5.765625 3.96875 -5.765625 Z M 3.96875 -5.765625 "/></g></g></g><g fill="#000000" fill-opacity="1"><g transform="translate(67.157428, 122.524511)"><g/></g></g><g fill="#000000" fill-opacity="1"><g transform="translate(69.849551, 122.524511)"><g><path d="M 4.8125 0 L 4.609375 -0.71875 L 4.53125 -0.71875 C 4.363281 -0.457031 4.128906 -0.253906 3.828125 -0.109375 C 3.523438 0.0234375 3.175781 0.09375 2.78125 0.09375 C 2.125 0.09375 1.625 -0.0820312 1.28125 -0.4375 C 0.945312 -0.789062 0.78125 -1.300781 0.78125 -1.96875 L 0.78125 -5.65625 L 2.328125 -5.65625 L 2.328125 -2.359375 C 2.328125 -1.941406 2.394531 -1.628906 2.53125 -1.421875 C 2.675781 -1.222656 2.910156 -1.125 3.234375 -1.125 C 3.660156 -1.125 3.96875 -1.269531 4.15625 -1.5625 C 4.351562 -1.851562 4.453125 -2.332031 4.453125 -3 L 4.453125 -5.65625 L 6 -5.65625 L 6 0 Z M 4.8125 0 "/></g></g></g><g fill="#000000" fill-opacity="1"><g transform="translate(76.660826, 122.524511)"><g><path d="M 5.875 0 L 4.328125 0 L 4.328125 -3.296875 C 4.328125 -3.710938 4.257812 -4.019531 4.125 -4.21875 C 3.988281 -4.425781 3.773438 -4.53125 3.484375 -4.53125 C 3.085938 -4.53125 2.800781 -4.382812 2.625 -4.09375 C 2.445312 -3.800781 2.359375 -3.320312 2.359375 -2.65625 L 2.359375 0 L 0.8125 0 L 0.8125 -5.65625 L 1.984375 -5.65625 L 2.1875 -4.9375 L 2.28125 -4.9375 C 2.4375 -5.195312 2.65625 -5.398438 2.9375 -5.546875 C 3.226562 -5.691406 3.554688 -5.765625 3.921875 -5.765625 C 4.765625 -5.765625 5.335938 -5.488281 5.640625 -4.9375 L 5.78125 -4.9375 C 5.9375 -5.195312 6.160156 -5.398438 6.453125 -5.546875 C 6.742188 -5.691406 7.078125 -5.765625 7.453125 -5.765625 C 8.085938 -5.765625 8.566406 -5.597656 8.890625 -5.265625 C 9.222656 -4.941406 9.390625 -4.414062 9.390625 -3.6875 L 9.390625 0 L 7.84375 0 L 7.84375 -3.296875 C 7.84375 -3.710938 7.773438 -4.019531 7.640625 -4.21875 C 7.503906 -4.425781 7.289062 -4.53125 7 -4.53125 C 6.625 -4.53125 6.34375 -4.394531 6.15625 -4.125 C 5.96875 -3.851562 5.875 -3.425781 5.875 -2.84375 Z M 5.875 0 "/></g></g></g><g fill="#000000" fill-opacity="1"><g transform="translate(60.366829, 136.764302)"><g><path d="M 3.1875 -1.125 C 3.457031 -1.125 3.78125 -1.1875 4.15625 -1.3125 L 4.15625 -0.15625 C 3.78125 0.0078125 3.3125 0.09375 2.75 0.09375 C 2.132812 0.09375 1.679688 -0.0546875 1.390625 -0.359375 C 1.109375 -0.671875 0.96875 -1.140625 0.96875 -1.765625 L 0.96875 -4.5 L 0.234375 -4.5 L 0.234375 -5.15625 L 1.09375 -5.671875 L 1.53125 -6.859375 L 2.515625 -6.859375 L 2.515625 -5.65625 L 4.109375 -5.65625 L 4.109375 -4.5 L 2.515625 -4.5 L 2.515625 -1.765625 C 2.515625 -1.546875 2.578125 -1.382812 2.703125 -1.28125 C 2.828125 -1.175781 2.988281 -1.125 3.1875 -1.125 Z M 3.1875 -1.125 "/></g></g></g><g fill="#000000" fill-opacity="1"><g transform="translate(64.865515, 136.764302)"><g><path d="M 2.359375 0 L 0.8125 0 L 0.8125 -5.65625 L 2.359375 -5.65625 Z M 0.71875 -6.28125 L 0.71875 -6.40625 C 1.300781 -7.082031 1.703125 -7.59375 1.921875 -7.9375 L 3.640625 -7.9375 L 3.640625 -7.828125 C 3.460938 -7.648438 3.160156 -7.390625 2.734375 -7.046875 C 2.316406 -6.703125 1.988281 -6.445312 1.75 -6.28125 Z M 0.71875 -6.28125 "/></g></g></g><g fill="#000000" fill-opacity="1"><g transform="translate(68.02826, 136.764302)"><g><path d="M 3.1875 -1.125 C 3.457031 -1.125 3.78125 -1.1875 4.15625 -1.3125 L 4.15625 -0.15625 C 3.78125 0.0078125 3.3125 0.09375 2.75 0.09375 C 2.132812 0.09375 1.679688 -0.0546875 1.390625 -0.359375 C 1.109375 -0.671875 0.96875 -1.140625 0.96875 -1.765625 L 0.96875 -4.5 L 0.234375 -4.5 L 0.234375 -5.15625 L 1.09375 -5.671875 L 1.53125 -6.859375 L 2.515625 -6.859375 L 2.515625 -5.65625 L 4.109375 -5.65625 L 4.109375 -4.5 L 2.515625 -4.5 L 2.515625 -1.765625 C 2.515625 -1.546875 2.578125 -1.382812 2.703125 -1.28125 C 2.828125 -1.175781 2.988281 -1.125 3.1875 -1.125 Z M 3.1875 -1.125 "/></g></g></g><g fill="#000000" fill-opacity="1"><g transform="translate(72.526945, 136.764302)"><g><path d="M 4.8125 0 L 4.609375 -0.71875 L 4.53125 -0.71875 C 4.363281 -0.457031 4.128906 -0.253906 3.828125 -0.109375 C 3.523438 0.0234375 3.175781 0.09375 2.78125 0.09375 C 2.125 0.09375 1.625 -0.0820312 1.28125 -0.4375 C 0.945312 -0.789062 0.78125 -1.300781 0.78125 -1.96875 L 0.78125 -5.65625 L 2.328125 -5.65625 L 2.328125 -2.359375 C 2.328125 -1.941406 2.394531 -1.628906 2.53125 -1.421875 C 2.675781 -1.222656 2.910156 -1.125 3.234375 -1.125 C 3.660156 -1.125 3.96875 -1.269531 4.15625 -1.5625 C 4.351562 -1.851562 4.453125 -2.332031 4.453125 -3 L 4.453125 -5.65625 L 6 -5.65625 L 6 0 Z M 4.8125 0 "/></g></g></g><g fill="#000000" fill-opacity="1"><g transform="translate(79.338221, 136.764302)"><g><path d="M 2.359375 0 L 0.8125 0 L 0.8125 -7.875 L 2.359375 -7.875 Z M 2.359375 0 "/></g></g></g><g fill="#000000" fill-opacity="1"><g transform="translate(82.500966, 136.764302)"><g><path d="M 2.03125 -2.84375 C 2.03125 -2.28125 2.125 -1.851562 2.3125 -1.5625 C 2.5 -1.28125 2.800781 -1.140625 3.21875 -1.140625 C 3.625 -1.140625 3.914062 -1.28125 4.09375 -1.5625 C 4.28125 -1.851562 4.375 -2.28125 4.375 -2.84375 C 4.375 -3.394531 4.28125 -3.8125 4.09375 -4.09375 C 3.914062 -4.375 3.617188 -4.515625 3.203125 -4.515625 C 2.785156 -4.515625 2.484375 -4.375 2.296875 -4.09375 C 2.117188 -3.820312 2.03125 -3.40625 2.03125 -2.84375 Z M 5.953125 -2.84375 C 5.953125 -1.914062 5.707031 -1.191406 5.21875 -0.671875 C 4.726562 -0.160156 4.050781 0.09375 3.1875 0.09375 C 2.644531 0.09375 2.164062 -0.0195312 1.75 -0.25 C 1.34375 -0.488281 1.023438 -0.832031 0.796875 -1.28125 C 0.578125 -1.726562 0.46875 -2.25 0.46875 -2.84375 C 0.46875 -3.757812 0.707031 -4.472656 1.1875 -4.984375 C 1.664062 -5.503906 2.34375 -5.765625 3.21875 -5.765625 C 3.757812 -5.765625 4.238281 -5.644531 4.65625 -5.40625 C 5.070312 -5.164062 5.390625 -4.828125 5.609375 -4.390625 C 5.835938 -3.953125 5.953125 -3.4375 5.953125 -2.84375 Z M 5.953125 -2.84375 "/></g></g></g></svg>