<svg width="239" height="84" viewBox="0 0 239 84" fill="none" xmlns="http://www.w3.org/2000/svg">
<g id="Group">
<g id="Group_2">
<g id="Group_3">
<path id="Vector" d="M94.3464 49.4537C93.3166 46.8969 92.8018 44.1078 92.8018 41.089C92.8018 38.0702 93.3166 35.3266 94.3464 32.7496C95.3763 30.175 96.8251 27.9362 98.6904 26.0356C100.556 24.135 102.731 22.6508 105.218 21.5857C107.704 20.5205 110.405 19.9879 113.317 19.9879C116.23 19.9879 118.974 20.5205 121.442 21.5857C123.911 22.6508 126.079 24.135 127.942 26.0356C129.807 27.9362 131.253 30.1649 132.285 32.7218C133.315 35.2787 133.83 38.0677 133.83 41.0865C133.83 44.1053 133.305 46.8489 132.258 49.426C131.21 52.003 129.754 54.2393 127.889 56.1399C126.023 58.0405 123.858 59.5222 121.389 60.5898C118.921 61.655 116.23 62.1876 113.317 62.1876C110.405 62.1876 107.696 61.655 105.192 60.5898C102.688 59.5247 100.513 58.0405 98.6651 56.1399C96.8175 54.2393 95.3788 52.0106 94.349 49.4537H94.3464ZM129.113 48.3356C129.946 46.1346 130.365 43.7191 130.365 41.089C130.365 38.4589 129.946 36.046 129.113 33.8425C128.277 31.6415 127.096 29.7232 125.569 28.0876C124.042 26.4546 122.23 25.1925 120.135 24.3041C118.037 23.4156 115.766 22.9714 113.315 22.9714C110.864 22.9714 108.537 23.4156 106.442 24.3041C104.344 25.1925 102.535 26.4546 101.007 28.0876C99.4804 29.7207 98.2991 31.639 97.4637 33.8425C96.6282 36.046 96.2118 38.4615 96.2118 41.089C96.2118 43.7165 96.6383 46.1346 97.4915 48.3356C98.3446 50.5391 99.5334 52.4573 101.06 54.0904C102.588 55.7235 104.39 56.9855 106.469 57.874C108.547 58.7624 110.829 59.2067 113.317 59.2067C115.806 59.2067 118.085 58.7624 120.165 57.874C122.242 56.9855 124.045 55.726 125.574 54.0904C127.101 52.4573 128.282 50.5391 129.118 48.3356H129.113Z" fill="white"/>
<path id="Vector_2" d="M136.226 35.3342H153.596V37.9971H136.226V35.3342ZM141.715 30.3795C141.715 26.2602 142.569 23.1506 144.272 21.0556C145.978 18.9607 148.462 17.9107 151.731 17.9107C152.725 17.9107 153.667 18.0091 154.555 18.2035C155.444 18.4003 156.224 18.6553 156.9 18.9758L156.527 21.5857C155.815 21.303 155.063 21.0708 154.262 20.8941C153.462 20.7174 152.69 20.6265 151.945 20.6265C149.495 20.6265 147.69 21.4342 146.536 23.0522C145.38 24.6701 144.805 27.2169 144.805 30.6975V61.3345H141.715V30.377V30.3795ZM156.314 35.3342H173.205V37.9971H156.314V35.3342ZM161.802 30.3265C161.802 26.2072 162.602 23.1077 164.2 21.0279C165.797 18.9506 168.178 17.9107 171.34 17.9107C172.12 17.9107 172.913 17.9813 173.71 18.1227C174.51 18.264 175.23 18.4786 175.868 18.7613L175.495 21.4267C174.892 21.1793 174.25 20.9824 173.577 20.8411C172.903 20.6997 172.226 20.6291 171.552 20.6291C169.243 20.6291 167.557 21.4292 166.491 23.0269C165.426 24.6246 164.894 27.184 164.894 30.7V61.337H161.804V30.3265H161.802ZM179.919 26.6237C179.493 26.1795 179.281 25.6368 179.281 24.9982C179.281 24.3243 179.493 23.764 179.919 23.3197C180.346 22.8755 180.896 22.6534 181.57 22.6534C182.279 22.6534 182.84 22.8755 183.249 23.3197C183.658 23.764 183.862 24.3243 183.862 24.9982C183.862 25.6368 183.658 26.1795 183.249 26.6237C182.84 27.0679 182.279 27.2901 181.57 27.2901C180.861 27.2901 180.343 27.0679 179.919 26.6237ZM180.078 35.3342H183.168V61.337H180.078V35.3342Z" fill="white"/>
<path id="Vector_3" d="M190.894 41.2758C192.065 39.1985 193.691 37.573 195.771 36.3994C197.85 35.2257 200.22 34.6401 202.883 34.6401C204.304 34.6401 205.698 34.7991 207.066 35.1197C208.434 35.4402 209.668 35.9021 210.768 36.5054L210.289 39.2238C209.294 38.6559 208.131 38.2116 206.798 37.8911C205.465 37.5705 204.16 37.4115 202.881 37.4115C200.821 37.4115 198.991 37.8734 197.393 38.7972C195.796 39.721 194.544 41.0007 193.638 42.6338C192.732 44.2668 192.28 46.1498 192.28 48.2826C192.28 50.4154 192.732 52.4119 193.638 54.0627C194.544 55.7134 195.813 56.9931 197.447 57.8993C199.08 58.8054 200.998 59.2572 203.201 59.2572C204.481 59.2572 205.786 59.0805 207.119 58.7246C208.451 58.3687 209.739 57.8715 210.98 57.2329L211.354 59.8428C210.324 60.5192 209.055 61.0518 207.545 61.4405C206.036 61.8317 204.534 62.0261 203.042 62.0261C200.271 62.0261 197.838 61.4582 195.743 60.3223C193.645 59.1865 192.022 57.5964 190.866 55.5544C189.713 53.5124 189.135 51.1398 189.135 48.4416C189.135 45.7434 189.72 43.3531 190.894 41.2758Z" fill="white"/>
<path id="Vector_4" d="M216.311 41.195C217.412 39.1001 218.921 37.4569 220.839 36.2656C222.757 35.0767 224.941 34.4811 227.392 34.4811C229.663 34.4811 231.662 34.996 233.386 36.0258C235.11 37.0556 236.45 38.4943 237.41 40.3419C238.369 42.1895 238.848 44.3577 238.848 46.8414C238.848 47.2326 238.838 47.6137 238.821 47.9873C238.803 48.3608 238.775 48.7596 238.74 49.1862H216.627L216.68 46.7354H237.513L235.809 48.1211C235.845 47.6592 235.862 47.2149 235.862 46.7884C235.862 46.3618 235.845 45.9554 235.809 45.5617C235.703 43.8226 235.284 42.3309 234.557 41.0865C233.828 39.8447 232.844 38.8679 231.599 38.1561C230.355 37.4468 228.899 37.0909 227.23 37.0909C225.383 37.0909 223.732 37.5629 222.275 38.5019C220.819 39.4433 219.683 40.7584 218.865 42.4445C218.048 44.1331 217.639 46.0766 217.639 48.2801C217.674 50.5896 218.154 52.5785 219.077 54.2469C220.001 55.9178 221.306 57.195 222.995 58.0835C224.681 58.972 226.68 59.4162 228.989 59.4162C230.516 59.4162 232.054 59.2294 233.598 58.8558C235.143 58.4823 236.574 57.9421 237.887 57.2304L238.313 59.8932C237.142 60.605 235.711 61.1628 234.025 61.5717C232.336 61.9806 230.622 62.1851 228.883 62.1851C225.971 62.1851 223.449 61.6247 221.316 60.5066C219.186 59.3884 217.54 57.7882 216.387 55.7109C215.233 53.6336 214.655 51.1903 214.655 48.3835C214.655 45.5768 215.206 43.2875 216.306 41.19L216.311 41.195Z" fill="white"/>
</g>
<g id="Group_4">
<path id="Vector_5" d="M93.9048 76.1734H92.6504L95.4647 68.3463H96.8302L99.6395 76.1734H98.3901L96.174 69.7698H96.1109L93.9048 76.1734ZM94.1144 73.1117H98.1731V74.0986H94.1144V73.1117Z" fill="white"/>
<path id="Vector_6" d="M104.607 76.2996C104.021 76.2996 103.514 76.2087 103.087 76.0244C102.661 75.8402 102.323 75.5777 102.083 75.2344C101.841 74.8911 101.707 74.4822 101.679 74.0103H102.865C102.89 74.2929 102.981 74.5302 103.14 74.717C103.299 74.9038 103.506 75.0426 103.764 75.1334C104.021 75.2243 104.299 75.2698 104.604 75.2698C104.938 75.2698 105.235 75.2167 105.498 75.1133C105.76 75.0098 105.967 74.8609 106.116 74.669C106.265 74.4772 106.338 74.2551 106.338 74.0001C106.338 73.7679 106.273 73.5812 106.142 73.4322C106.01 73.2858 105.834 73.1647 105.609 73.0663C105.384 72.9703 105.132 72.8845 104.852 72.8113L103.933 72.5589C103.302 72.3898 102.805 72.1399 102.441 71.8042C102.078 71.4711 101.894 71.0319 101.894 70.4892C101.894 70.0374 102.015 69.6436 102.259 69.3079C102.502 68.9722 102.835 68.7097 103.251 68.523C103.67 68.3362 104.14 68.2428 104.662 68.2428C105.185 68.2428 105.662 68.3362 106.068 68.523C106.475 68.7097 106.793 68.9647 107.03 69.2903C107.267 69.6134 107.391 69.9844 107.401 70.4008H106.255C106.212 70.0399 106.046 69.7597 105.753 69.5603C105.46 69.3609 105.089 69.26 104.637 69.26C104.322 69.26 104.047 69.3105 103.809 69.4089C103.572 69.5099 103.39 69.6462 103.264 69.8203C103.135 69.9945 103.072 70.1964 103.072 70.4236C103.072 70.6684 103.148 70.8678 103.299 71.0218C103.451 71.1757 103.638 71.2969 103.857 71.3878C104.077 71.4761 104.286 71.5493 104.491 71.6048L105.253 71.8093C105.5 71.8724 105.758 71.9557 106.02 72.0617C106.283 72.1677 106.528 72.304 106.752 72.4731C106.977 72.6422 107.161 72.8542 107.297 73.1041C107.436 73.354 107.504 73.6569 107.504 74.0103C107.504 74.4469 107.391 74.8407 107.164 75.1839C106.937 75.5297 106.606 75.7998 106.177 75.9967C105.745 76.1936 105.225 76.2945 104.612 76.2945L104.607 76.2996Z" fill="white"/>
<path id="Vector_7" d="M112.815 76.2996C112.229 76.2996 111.722 76.2087 111.295 76.0244C110.869 75.8402 110.531 75.5777 110.291 75.2344C110.049 74.8911 109.915 74.4822 109.887 74.0103H111.073C111.098 74.2929 111.189 74.5302 111.348 74.717C111.507 74.9038 111.714 75.0426 111.972 75.1334C112.229 75.2243 112.507 75.2698 112.812 75.2698C113.146 75.2698 113.443 75.2167 113.706 75.1133C113.968 75.0098 114.175 74.8609 114.324 74.669C114.473 74.4772 114.546 74.2551 114.546 74.0001C114.546 73.7679 114.481 73.5812 114.349 73.4322C114.218 73.2858 114.042 73.1647 113.817 73.0663C113.592 72.9703 113.34 72.8845 113.06 72.8113L112.141 72.5589C111.51 72.3898 111.013 72.1399 110.649 71.8042C110.286 71.4711 110.102 71.0319 110.102 70.4892C110.102 70.0374 110.223 69.6436 110.468 69.3079C110.71 68.9722 111.043 68.7097 111.459 68.523C111.878 68.3362 112.348 68.2428 112.87 68.2428C113.393 68.2428 113.87 68.3362 114.276 68.523C114.683 68.7097 115.001 68.9647 115.238 69.2903C115.475 69.6134 115.599 69.9844 115.609 70.4008H114.463C114.42 70.0399 114.254 69.7597 113.961 69.5603C113.668 69.3609 113.297 69.26 112.845 69.26C112.53 69.26 112.255 69.3105 112.017 69.4089C111.78 69.5099 111.598 69.6462 111.472 69.8203C111.343 69.9945 111.28 70.1964 111.28 70.4236C111.28 70.6684 111.356 70.8678 111.507 71.0218C111.659 71.1757 111.846 71.2969 112.065 71.3878C112.285 71.4761 112.494 71.5493 112.699 71.6048L113.461 71.8093C113.708 71.8724 113.966 71.9557 114.228 72.0617C114.491 72.1677 114.736 72.304 114.96 72.4731C115.185 72.6422 115.369 72.8542 115.506 73.1041C115.644 73.354 115.712 73.6569 115.712 74.0103C115.712 74.4469 115.599 74.8407 115.372 75.1839C115.145 75.5297 114.814 75.7998 114.385 75.9967C113.953 76.1936 113.433 76.2945 112.82 76.2945L112.815 76.2996Z" fill="white"/>
<path id="Vector_8" d="M118.403 76.1734V68.3463H123.315V69.3609H119.587V71.7184H123.053V72.7281H119.587V75.1587H123.353V76.1734H118.406H118.403Z" fill="white"/>
<path id="Vector_9" d="M128.795 76.2996C128.209 76.2996 127.702 76.2087 127.275 76.0244C126.849 75.8402 126.511 75.5777 126.271 75.2344C126.029 74.8911 125.895 74.4822 125.867 74.0103H127.053C127.078 74.2929 127.169 74.5302 127.328 74.717C127.487 74.9038 127.694 75.0426 127.952 75.1334C128.209 75.2243 128.487 75.2698 128.792 75.2698C129.126 75.2698 129.423 75.2167 129.686 75.1133C129.948 75.0098 130.155 74.8609 130.304 74.669C130.453 74.4772 130.526 74.2551 130.526 74.0001C130.526 73.7679 130.461 73.5812 130.329 73.4322C130.198 73.2858 130.022 73.1647 129.797 73.0663C129.572 72.9703 129.32 72.8845 129.04 72.8113L128.121 72.5589C127.49 72.3898 126.993 72.1399 126.629 71.8042C126.266 71.4711 126.082 71.0319 126.082 70.4892C126.082 70.0374 126.203 69.6436 126.447 69.3079C126.69 68.9722 127.023 68.7097 127.439 68.523C127.858 68.3362 128.328 68.2428 128.85 68.2428C129.373 68.2428 129.85 68.3362 130.256 68.523C130.663 68.7097 130.981 68.9647 131.218 69.2903C131.455 69.6134 131.579 69.9844 131.589 70.4008H130.443C130.4 70.0399 130.234 69.7597 129.941 69.5603C129.648 69.3609 129.277 69.26 128.825 69.26C128.51 69.26 128.234 69.3105 127.997 69.4089C127.76 69.5099 127.578 69.6462 127.452 69.8203C127.323 69.9945 127.26 70.1964 127.26 70.4236C127.26 70.6684 127.336 70.8678 127.487 71.0218C127.639 71.1757 127.826 71.2969 128.045 71.3878C128.265 71.4761 128.474 71.5493 128.679 71.6048L129.441 71.8093C129.688 71.8724 129.946 71.9557 130.208 72.0617C130.471 72.1677 130.716 72.304 130.94 72.4731C131.165 72.6422 131.349 72.8542 131.485 73.1041C131.624 73.354 131.692 73.6569 131.692 74.0103C131.692 74.4469 131.579 74.8407 131.352 75.1839C131.125 75.5297 130.794 75.7998 130.365 75.9967C129.933 76.1936 129.413 76.2945 128.8 76.2945L128.795 76.2996Z" fill="white"/>
<path id="Vector_10" d="M137.003 76.2996C136.417 76.2996 135.91 76.2087 135.484 76.0244C135.057 75.8402 134.719 75.5777 134.479 75.2344C134.237 74.8911 134.103 74.4822 134.075 74.0103H135.261C135.287 74.2929 135.378 74.5302 135.537 74.717C135.696 74.9038 135.903 75.0426 136.16 75.1334C136.418 75.2243 136.695 75.2698 137.001 75.2698C137.334 75.2698 137.632 75.2167 137.894 75.1133C138.157 75.0098 138.364 74.8609 138.512 74.669C138.661 74.4772 138.735 74.2551 138.735 74.0001C138.735 73.7679 138.669 73.5812 138.538 73.4322C138.406 73.2858 138.23 73.1647 138.005 73.0663C137.781 72.9703 137.528 72.8845 137.248 72.8113L136.329 72.5589C135.698 72.3898 135.201 72.1399 134.837 71.8042C134.474 71.4711 134.29 71.0319 134.29 70.4892C134.29 70.0374 134.411 69.6436 134.656 69.3079C134.898 68.9722 135.231 68.7097 135.648 68.523C136.067 68.3362 136.536 68.2428 137.059 68.2428C137.581 68.2428 138.058 68.3362 138.464 68.523C138.871 68.7097 139.189 68.9647 139.426 69.2903C139.663 69.6134 139.787 69.9844 139.797 70.4008H138.651C138.608 70.0399 138.442 69.7597 138.149 69.5603C137.856 69.3609 137.485 69.26 137.033 69.26C136.718 69.26 136.443 69.3105 136.205 69.4089C135.968 69.5099 135.787 69.6462 135.66 69.8203C135.532 69.9945 135.468 70.1964 135.468 70.4236C135.468 70.6684 135.544 70.8678 135.696 71.0218C135.847 71.1757 136.034 71.2969 136.253 71.3878C136.473 71.4761 136.683 71.5493 136.887 71.6048L137.649 71.8093C137.897 71.8724 138.154 71.9557 138.417 72.0617C138.679 72.1677 138.924 72.304 139.149 72.4731C139.373 72.6422 139.557 72.8542 139.694 73.1041C139.833 73.354 139.901 73.6569 139.901 74.0103C139.901 74.4469 139.787 74.8407 139.56 75.1839C139.333 75.5297 139.002 75.7998 138.573 75.9967C138.141 76.1936 137.621 76.2945 137.008 76.2945L137.003 76.2996Z" fill="white"/>
<path id="Vector_11" d="M145.867 76.2794C145.196 76.2794 144.593 76.1178 144.06 75.7973C143.528 75.4742 143.109 75.0148 142.801 74.4141C142.493 73.8134 142.339 73.0991 142.339 72.2686C142.339 71.4382 142.493 70.7139 142.801 70.1131C143.109 69.5124 143.53 69.0505 144.06 68.7299C144.593 68.4068 145.196 68.2453 145.867 68.2453C146.539 68.2453 147.15 68.4068 147.68 68.7299C148.21 69.053 148.626 69.5124 148.932 70.1131C149.237 70.7139 149.391 71.4332 149.391 72.2686C149.391 73.1041 149.237 73.8184 148.932 74.4166C148.626 75.0148 148.207 75.4767 147.68 75.7973C147.152 76.1178 146.546 76.2794 145.867 76.2794ZM145.867 75.2016C146.319 75.2016 146.721 75.0905 147.077 74.8659C147.432 74.6413 147.71 74.3106 147.915 73.8739C148.119 73.4373 148.222 72.8997 148.222 72.2661C148.222 71.6326 148.119 71.0899 147.915 70.6508C147.71 70.2116 147.43 69.8784 147.077 69.6563C146.723 69.4341 146.319 69.3206 145.867 69.3206C145.416 69.3206 145.017 69.4316 144.661 69.6563C144.305 69.8809 144.025 70.2116 143.818 70.6508C143.611 71.0899 143.507 71.6275 143.507 72.2661C143.507 72.9047 143.611 73.4348 143.818 73.8739C144.025 74.3131 144.305 74.6413 144.661 74.8659C145.017 75.0905 145.418 75.2016 145.867 75.2016Z" fill="white"/>
<path id="Vector_12" d="M152.145 76.1734V68.3463H154.939C155.544 68.3463 156.047 68.4498 156.446 68.6593C156.844 68.8688 157.145 69.1565 157.344 69.525C157.544 69.8935 157.644 70.3201 157.644 70.8047C157.644 71.2893 157.544 71.7008 157.344 72.0642C157.145 72.4277 156.844 72.7104 156.443 72.9098C156.042 73.1092 155.537 73.2101 154.929 73.2101H152.824V72.2005H154.82C155.209 72.2005 155.524 72.145 155.764 72.0314C156.004 71.9178 156.178 71.7588 156.289 71.5544C156.4 71.3474 156.456 71.0975 156.456 70.8022C156.456 70.5069 156.4 70.2469 156.287 70.0324C156.173 69.8178 155.999 69.6512 155.759 69.5326C155.519 69.4165 155.204 69.3559 154.815 69.3559H153.328V76.1683H152.147L152.145 76.1734ZM156.597 76.1734L154.701 72.6397H156.009L157.942 76.1734H156.597Z" fill="white"/>
<path id="Vector_13" d="M161.554 68.3463V76.1734H160.373V68.3463H161.554Z" fill="white"/>
<path id="Vector_14" d="M165.224 76.1734H163.97L166.784 68.3463H168.15L170.959 76.1734H169.709L167.493 69.7698H167.43L165.224 76.1734ZM165.436 73.1117H169.495V74.0986H165.436V73.1117Z" fill="white"/>
<path id="Vector_15" d="M180.775 76.2794C180.103 76.2794 179.5 76.1178 178.968 75.7973C178.435 75.4742 178.016 75.0148 177.713 74.4141C177.408 73.8134 177.256 73.0991 177.256 72.2686C177.256 71.4382 177.41 70.7139 177.716 70.1131C178.021 69.5124 178.44 69.0505 178.97 68.7299C179.5 68.4068 180.101 68.2453 180.775 68.2453C181.189 68.2453 181.575 68.3059 181.938 68.4245C182.302 68.5432 182.625 68.7173 182.913 68.9445C183.2 69.1717 183.438 69.4493 183.625 69.7799C183.811 70.1081 183.938 70.4816 184.001 70.8981H182.814C182.769 70.6432 182.683 70.4185 182.559 70.2242C182.436 70.0298 182.282 69.8658 182.103 69.7295C181.923 69.5932 181.721 69.4922 181.499 69.424C181.277 69.3559 181.042 69.3206 180.792 69.3206C180.343 69.3206 179.939 69.4341 179.581 69.6588C179.223 69.8834 178.94 70.2166 178.735 70.6558C178.531 71.095 178.427 71.6326 178.427 72.2661C178.427 72.8997 178.531 73.4398 178.738 73.8765C178.945 74.3131 179.228 74.6413 179.584 74.8659C179.939 75.0905 180.341 75.2016 180.785 75.2016C181.035 75.2016 181.27 75.1688 181.489 75.1006C181.709 75.0325 181.911 74.9341 182.092 74.8003C182.274 74.6665 182.428 74.505 182.552 74.3157C182.675 74.1238 182.761 73.9042 182.812 73.6518H183.998C183.938 74.0405 183.819 74.3939 183.635 74.7145C183.453 75.035 183.221 75.3127 182.935 75.5449C182.65 75.7771 182.327 75.9588 181.964 76.085C181.6 76.2137 181.201 76.2768 180.772 76.2768L180.775 76.2794Z" fill="white"/>
<path id="Vector_16" d="M189.985 76.2794C189.314 76.2794 188.71 76.1178 188.178 75.7973C187.645 75.4742 187.226 75.0148 186.918 74.4141C186.61 73.8134 186.457 73.0991 186.457 72.2686C186.457 71.4382 186.61 70.7139 186.918 70.1131C187.226 69.5124 187.648 69.0505 188.178 68.7299C188.71 68.4068 189.314 68.2453 189.985 68.2453C190.657 68.2453 191.267 68.4068 191.797 68.7299C192.327 69.053 192.744 69.5124 193.049 70.1131C193.355 70.7139 193.509 71.4332 193.509 72.2686C193.509 73.1041 193.355 73.8184 193.049 74.4166C192.744 75.0148 192.325 75.4767 191.797 75.7973C191.27 76.1178 190.664 76.2794 189.985 76.2794ZM189.985 75.2016C190.437 75.2016 190.838 75.0905 191.194 74.8659C191.55 74.6413 191.828 74.3106 192.032 73.8739C192.237 73.4373 192.34 72.8997 192.34 72.2661C192.34 71.6326 192.237 71.0899 192.032 70.6508C191.828 70.2116 191.548 69.8784 191.194 69.6563C190.841 69.4341 190.437 69.3206 189.985 69.3206C189.533 69.3206 189.135 69.4316 188.779 69.6563C188.423 69.8809 188.143 70.2116 187.936 70.6508C187.729 71.0899 187.625 71.6275 187.625 72.2661C187.625 72.9047 187.729 73.4348 187.936 73.8739C188.143 74.3131 188.423 74.6413 188.779 74.8659C189.135 75.0905 189.536 75.2016 189.985 75.2016Z" fill="white"/>
<path id="Vector_17" d="M202.591 68.3463V76.1734H201.488L197.522 70.4387H197.444V76.1734H196.263V68.3463H197.356L201.336 74.0935H201.409V68.3463H202.591Z" fill="white"/>
<path id="Vector_18" d="M205.206 69.3609V68.3463H211.266V69.3609H208.828V76.1734H207.651V69.3609H205.203H205.206Z" fill="white"/>
<path id="Vector_19" d="M213.618 76.1734H212.364L215.178 68.3463H216.544L219.353 76.1734H218.103L215.887 69.7699H215.824L213.618 76.1734ZM213.828 73.1117H217.886V74.0986H213.828V73.1117ZM215.362 67.6118L216.097 66.1201H217.273L216.238 67.6118H215.362Z" fill="white"/>
<path id="Vector_20" d="M221.763 76.1734V68.3463H224.636C225.188 68.3463 225.648 68.4372 226.011 68.6189C226.375 68.8006 226.647 69.048 226.829 69.3559C227.011 69.6639 227.099 70.0122 227.099 70.3984C227.099 70.724 227.038 70.9991 226.917 71.2237C226.796 71.4483 226.637 71.6275 226.438 71.7588C226.238 71.8926 226.016 71.991 225.776 72.0541V72.1273C226.039 72.1425 226.294 72.2258 226.544 72.3797C226.791 72.5337 226.998 72.7508 227.16 73.0335C227.324 73.3162 227.404 73.6594 227.404 74.0658C227.404 74.4722 227.311 74.823 227.124 75.141C226.937 75.4591 226.65 75.7089 226.261 75.8957C225.872 76.0825 225.373 76.1734 224.764 76.1734H221.766H221.763ZM222.944 71.7361H224.532C224.795 71.7361 225.032 71.6856 225.246 71.5847C225.461 71.4837 225.628 71.3398 225.754 71.1505C225.877 70.9637 225.941 70.7441 225.941 70.4968C225.941 70.1737 225.827 69.9036 225.602 69.684C225.378 69.4644 225.032 69.3559 224.565 69.3559H222.947V71.7361H222.944ZM222.944 75.1663H224.646C225.214 75.1663 225.62 75.0552 225.865 74.8356C226.11 74.616 226.233 74.3409 226.233 74.0103C226.233 73.7604 226.17 73.5358 226.046 73.3288C225.923 73.1218 225.744 72.9603 225.514 72.8366C225.282 72.7129 225.009 72.6523 224.694 72.6523H222.944V75.1637V75.1663Z" fill="white"/>
<path id="Vector_21" d="M231.269 68.3463V76.1734H230.087V68.3463H231.269Z" fill="white"/>
<path id="Vector_22" d="M234.272 76.1734V68.3463H235.454V75.1587H239V76.1734H234.272Z" fill="white"/>
</g>
</g>
<g id="Group_5">
<g id="Group_6">
<path id="Vector_23" d="M50.1832 1.21406C50.1807 0.926314 49.8349 0.779934 49.6254 0.97681L22.9437 26.1971C22.661 26.4596 22.502 26.8281 22.502 27.2143V53.7926C22.502 54.0854 22.8553 54.2343 23.0648 54.0273L50.3776 27.0099C50.4407 26.9468 50.4761 26.861 50.4761 26.7726L50.1832 1.21153V1.21406Z" fill="white"/>
<path id="Vector_24" d="M55.6477 26.914L22.7543 55.5822C22.5953 55.721 22.5044 55.9229 22.5044 56.1324V59.6282C22.5044 60.0321 22.8325 60.3602 23.2363 60.3602H57.1698V27.2169C57.1698 26.702 56.0415 26.5783 55.6503 26.914H55.6477Z" fill="white"/>
</g>
<g id="Group_7">
<path id="Vector_25" d="M39.8371 83.0161C40.0264 83.0161 40.2057 82.9277 40.3193 82.7763L57.1673 60.5142H39.2263V82.4053C39.2263 82.7435 39.4989 83.0161 39.8371 83.0161Z" fill="white"/>
<g id="Group_8">
<path id="Vector_26" d="M41.7352 4.26059C41.8866 4.26059 42.1694 4.26059 42.4647 4.26312L42.4546 4.27319C42.2148 4.26815 41.9775 4.26059 41.7327 4.26059H41.7352Z" fill="white"/>
<path id="Vector_27" d="M46.4148 0.275113L43.0603 3.65988C42.6312 3.65483 42.0002 3.64977 41.7352 3.64977C20.8183 3.64977 3.80118 20.6669 3.80118 41.5838C3.80118 50.2034 6.78461 58.6514 12.1987 65.3654C17.4866 71.9153 25.1572 76.5747 33.2922 78.4955V82.4759C14.3189 78.5939 0 61.7661 0 41.6595C0 18.6906 18.688 0 41.6594 0C43.2673 0 44.8524 0.0933789 46.4148 0.272587V0.275113Z" fill="white"/>
<path id="Vector_28" d="M83.3191 41.662C83.3191 61.0518 69.9997 77.395 52.0309 82.014L52.0183 78.0513C68.0763 73.3237 79.6718 58.341 79.6718 41.5863C79.6718 33.3579 77.0695 25.5232 72.1451 18.9329C67.4276 12.6203 60.4411 7.83969 52.98 5.45446V1.56742C70.4666 6.51204 83.3216 22.613 83.3216 41.662H83.3191Z" fill="white"/>
<path id="Vector_29" d="M78.1245 33.32C78.6874 35.7658 79.0054 38.2974 79.0508 40.8821C79.0003 38.2873 78.6798 35.7582 78.1245 33.32Z" fill="white"/>
</g>
<g id="Group_9">
<path id="Vector_30" d="M42.4647 4.26312L42.4546 4.27319L39.6933 7.05976C21.568 8.11986 7.14554 23.2011 7.14554 41.5888C7.14554 57.7503 18.2867 71.3575 33.2922 75.1334V77.8771C16.7016 73.879 4.40698 58.6817 4.40698 41.5888C4.40698 21.3308 20.629 4.78558 40.771 4.27572C41.089 4.26562 41.4096 4.26312 41.7326 4.26312C41.8841 4.26312 42.1668 4.26312 42.4621 4.26565L42.4647 4.26312Z" fill="white"/>
<path id="Vector_31" d="M79.0608 41.5863C79.0608 41.8438 79.0583 42.1037 79.0507 42.3612C78.7049 58.5328 67.5587 72.8618 52.0131 77.4455L52.0005 74.6186C66.0771 70.2368 76.3222 57.0865 76.3222 41.5863C76.3222 26.0861 66.5466 13.5517 52.9747 8.87459V6.09307C64.7696 9.92964 73.7603 19.1247 77.3521 30.4956C77.4985 30.9499 77.6322 31.4068 77.7559 31.8712C77.819 32.111 77.8846 32.3508 77.9452 32.5956C78.0058 32.8379 78.0639 33.0828 78.1219 33.3251C78.1724 33.5522 78.2228 33.7819 78.2708 34.0091C78.2758 34.0419 78.286 34.0772 78.291 34.1101C78.2935 34.1252 78.2961 34.1403 78.3011 34.1555C78.3036 34.1681 78.3036 34.1757 78.3062 34.1883C78.3188 34.2337 78.3263 34.2792 78.3339 34.3246C78.3364 34.3397 78.3389 34.3574 78.344 34.3725C78.3591 34.4407 78.3717 34.5063 78.3844 34.5745C78.4121 34.7083 78.4349 34.8395 78.4601 34.9758C78.4651 35.0061 78.4727 35.0389 78.4778 35.0692C78.4778 35.0742 78.4803 35.0843 78.4803 35.0894C78.4904 35.1323 78.498 35.1727 78.5005 35.2105C78.5056 35.2408 78.5106 35.2686 78.5156 35.2989C78.5409 35.4377 78.5636 35.5816 78.5888 35.7204C78.5989 35.7886 78.609 35.8567 78.6191 35.9274C78.6217 35.9526 78.6242 35.9728 78.6292 35.998C78.6419 36.0738 78.6545 36.1495 78.6646 36.2252V36.2353C78.6822 36.3514 78.6999 36.4675 78.715 36.5786C78.7352 36.7451 78.7605 36.9092 78.7781 37.0784C78.7958 37.2273 78.8134 37.3762 78.8286 37.5251C78.8336 37.5604 78.8387 37.5958 78.8412 37.6311C78.8438 37.6462 78.8438 37.6639 78.8463 37.6791C78.8488 37.7119 78.8513 37.7472 78.8564 37.78C78.8816 38.0122 78.9018 38.2419 78.9245 38.4767L78.9346 38.5953C78.9447 38.6937 78.9497 38.7896 78.9548 38.8881C78.9573 38.9083 78.9573 38.931 78.9573 38.9512C78.9573 38.9512 78.9582 38.9529 78.9599 38.9562C78.9624 39.0269 78.97 39.0925 78.9725 39.1632C78.975 39.2465 78.9775 39.3247 78.9851 39.4055V39.4383C78.9876 39.4585 78.9876 39.4812 78.9876 39.5014C78.9902 39.5342 78.9927 39.5721 78.9927 39.6049C78.9977 39.6781 79.0053 39.7488 79.0079 39.822C79.0079 39.8422 79.0103 39.8624 79.0103 39.8826V39.9129H79.0128V39.9431C79.0229 40.0921 79.028 40.241 79.0305 40.3924C79.0356 40.5565 79.0406 40.718 79.0432 40.8821C79.0482 41.1168 79.0533 41.3516 79.0533 41.5838L79.0608 41.5863Z" fill="white"/>
</g>
<path id="Vector_32" d="M77.7583 31.8662C77.6296 31.4043 77.4958 30.9474 77.3545 30.4905C77.5009 30.9449 77.6346 31.4017 77.7583 31.8662Z" fill="white"/>
</g>
</g>
</g>
</svg>
