<?xml version="1.0" encoding="UTF-8" standalone="no"?>
<svg
   version="1.1"
   width="11.6929in"
   height="8.2677in"
   viewBox="0 0 841.8898 595.2756"
   id="svg5"
   sodipodi:docname="de37c944-c62b-4ab3-a105-a10a9fbb4ac0.cdr"
   xmlns:inkscape="http://www.inkscape.org/namespaces/inkscape"
   xmlns:sodipodi="http://sodipodi.sourceforge.net/DTD/sodipodi-0.dtd"
   xmlns="http://www.w3.org/2000/svg"
   xmlns:svg="http://www.w3.org/2000/svg">
  <defs
     id="defs5" />
  <sodipodi:namedview
     id="namedview5"
     pagecolor="#ffffff"
     bordercolor="#000000"
     borderopacity="0.25"
     inkscape:showpageshadow="2"
     inkscape:pageopacity="0.0"
     inkscape:pagecheckerboard="0"
     inkscape:deskcolor="#d1d1d1"
     inkscape:document-units="in" />
  <g
     id="Layer1000">
    <path
       d="M130.5337,76.8036 L130.5337,483.2266 L690.0139,483.2266 L690.0139,76.8036 L130.5337,76.8036 Z"
       style="stroke-width: 0.5669; stroke: none; stroke-dasharray: none; stroke-linecap: butt; stroke-linejoin: miter; fill-rule: evenodd; fill: none;"
       id="path1" />
    <path
       d="M331.1543,197.9361 L408.1846,120.9058 L414.8273,127.5486 C418.4809,131.2022 418.0176,137.6439 413.7978,141.8637 L352.1356,203.5259 L362.7641,214.1543 L424.4262,152.4922 C428.6460,148.2723 435.0878,147.8091 438.7413,151.4626 L445.3841,158.1054 L445.3607,158.1288 L463.7259,176.4941 L463.7494,176.4707 L470.3922,183.1134 C474.0457,186.7670 473.5824,193.2087 469.3626,197.4285 L411.5266,255.2646 L398.2410,241.9790 L448.3813,191.8388 L430.0160,173.4735 L368.3539,235.1357 C364.1340,239.3555 357.6923,239.8188 354.0387,236.1652 L347.3960,229.5224 L347.4194,229.4990 L336.7910,218.8705 L336.7675,218.8940 L330.1247,212.2512 C326.4712,208.5977 326.9345,202.1559 331.1543,197.9361 Z"
       style="stroke-width: 0.5669; stroke: none; stroke-dasharray: none; stroke-linecap: butt; stroke-linejoin: miter; fill-rule: evenodd; fill: #dccf70;"
       id="path2" />
    <path
       d="M394.8989,277.0254 L394.9223,277.0019 L376.5039,258.5835 L376.4804,258.6069 L369.8376,251.9641 C366.1841,248.3106 366.6474,241.8688 370.8672,237.6490 L429.2430,179.2732 L442.5286,192.5588 L391.8485,243.2388 L410.2670,261.6573 L471.9292,199.9951 C476.1490,195.7753 482.5907,195.3120 486.2443,198.9656 L492.8871,205.6083 L415.8568,282.6386 C411.6370,286.8584 405.1952,287.3217 401.5417,283.6682 L394.8989,277.0254 Z"
       style="stroke-width: 0.5669; stroke: none; stroke-dasharray: none; stroke-linecap: butt; stroke-linejoin: miter; fill-rule: evenodd; fill: #ffffff;"
       id="path3" />
    <path
       d="M231.1541,370.6737 C231.1541,379.0843 228.4207,385.9529 222.9538,391.2797 C217.4868,396.6065 210.5014,399.2697 201.9973,399.2697 C192.5587,399.2697 185.0826,397.4943 179.5691,393.9431 L182.9333,384.9717 C187.7927,387.9623 193.3998,389.4574 199.7545,389.4574 C205.2682,389.4574 209.6603,387.8219 212.9312,384.5512 C216.2019,381.2803 217.8373,376.8882 217.8373,371.3746 C217.8373,367.0758 216.5523,363.5247 213.9824,360.7212 C211.4126,357.9177 207.0905,355.3010 201.0161,352.8712 C187.3723,347.4511 180.5504,338.8536 180.5504,327.0787 C180.5504,319.5091 183.0501,313.1077 188.0497,307.8745 C193.0493,302.6412 199.6144,300.0247 207.7445,300.0247 C215.9683,300.0247 222.5566,301.7535 227.5095,305.2111 L224.4022,313.3414 C219.6362,310.3510 214.5197,308.8557 209.0762,308.8557 C204.0065,308.8557 200.0583,310.3743 197.2547,313.4114 C194.4277,316.4487 193.0261,320.5838 193.0261,325.8172 C193.0261,330.3963 194.6146,334.1343 197.8153,337.0313 C200.1517,339.2741 203.9598,341.4234 209.2164,343.4795 C223.8416,349.1800 231.1541,358.2447 231.1541,370.6737 Z M640.9785,397.8680 L627.6618,397.8680 L618.5502,368.9917 L585.4685,368.9917 L576.0766,397.8680 L564.3018,397.8680 L596.9629,301.4263 L608.4574,301.4263 L640.9785,397.8680 Z M616.4476,361.4221 L605.2334,324.7190 C603.6447,319.6727 602.7102,315.7711 602.4299,313.0610 L602.1496,313.0610 C601.5888,315.6776 600.6076,319.5793 599.2059,324.7190 L587.7114,361.4221 L616.4476,361.4221 Z M572.1876,301.4263 L544.1524,397.8680 L532.9382,397.8680 L504.3422,301.4263 L518.0794,301.4263 L535.8819,369.2720 C536.8164,373.0100 537.7509,377.2153 538.6854,381.8878 L538.9657,381.8878 C539.4331,379.6451 540.4143,375.4397 541.9094,369.2720 L559.9922,301.4263 L572.1876,301.4263 Z M492.7650,397.8680 L479.8689,397.8680 L479.8689,301.4263 L492.7650,301.4263 L492.7650,397.8680 Z M468.9756,397.8680 L455.6588,397.8680 L446.5472,368.9917 L413.4655,368.9917 L404.0736,397.8680 L392.2989,397.8680 L424.9600,301.4263 L436.4544,301.4263 L468.9756,397.8680 Z M444.4446,361.4221 L433.2304,324.7190 C431.6417,319.6727 430.7072,315.7711 430.4269,313.0610 L430.1466,313.0610 C429.5858,315.6776 428.6046,319.5793 427.2029,324.7190 L415.7084,361.4221 L444.4446,361.4221 Z M384.8840,397.8680 L370.3057,397.8680 L338.6256,352.8712 L338.3453,352.8712 L338.3453,397.8680 L325.5893,397.8680 L325.5893,305.2111 C331.8504,301.7535 339.8406,300.0247 349.5595,300.0247 C360.3998,300.0247 368.6235,302.5245 374.2306,307.5240 C379.8377,312.5236 382.6412,319.5559 382.6412,328.6207 C382.6412,336.7508 380.0013,343.1523 374.7212,347.8249 C369.4413,352.4974 362.3155,354.9272 353.3443,355.1141 L353.3443,355.1141 L384.8840,397.8680 Z M369.8851,329.1813 C369.8851,314.7898 363.0164,307.5942 349.2792,307.5942 C344.5132,307.5942 340.8686,308.2950 338.3453,309.6968 L338.3453,350.0678 C340.2144,350.6284 342.9712,350.9087 346.6158,350.9087 C362.1286,350.9087 369.8851,343.6664 369.8851,329.1813 Z M311.8519,397.8680 L298.5351,397.8680 L289.4236,368.9917 L256.3418,368.9917 L246.9500,397.8680 L235.1752,397.8680 L267.8363,301.4263 L279.3308,301.4263 L311.8519,397.8680 Z M287.3210,361.4221 L276.1068,324.7190 C274.5181,319.6727 273.5835,315.7711 273.3032,313.0610 L273.0229,313.0610 C272.4622,315.6776 271.4809,319.5793 270.0792,324.7190 L258.5848,361.4221 L287.3210,361.4221 Z"
       style="fill-rule: evenodd; fill: #dccf70;"
       id="path4" />
    <path
       d="M209.1296,437.8018 C207.9692,438.6837 206.4029,439.1246 204.4303,439.1246 C201.6456,439.1246 199.4296,437.9180 197.7820,435.5044 C196.2271,433.2303 195.4497,426.8024 195.4497,426.8024 C195.4497,423.3215 196.2271,420.4322 197.7820,418.1349 C199.4296,415.6984 201.6456,414.4800 204.4303,414.4800 C206.3333,414.4800 207.8881,414.9210 209.0947,415.8028 L208.3289,417.6824 C207.3080,417.0559 206.1940,416.7426 204.9874,416.7426 C202.8524,416.7426 201.2512,417.7868 200.1837,419.8754 C199.2555,421.6390 198.7914,423.9480 198.7914,426.8024 C198.7914,429.6334 199.2672,431.9308 200.2186,433.6944 C201.3092,435.7134 202.8871,436.7228 204.9524,436.7228 C206.1592,436.7228 207.2731,436.4095 208.2942,435.7830 L209.1296,437.8018 Z M246.1140,426.8024 C246.1140,430.4920 245.4528,433.4044 244.1300,435.5393 C242.6448,437.9294 240.4287,439.1246 237.4816,439.1246 C234.5343,439.1246 232.3066,437.9294 230.7983,435.5393 C229.4755,433.4044 228.8141,430.4920 228.8141,426.8024 C228.8141,423.1358 229.4755,420.2351 230.7983,418.1001 C232.3066,415.6868 234.5343,414.4800 237.4816,414.4800 C240.4055,414.4800 242.6217,415.6868 244.1300,418.1001 C245.4528,420.2351 246.1140,423.1358 246.1140,426.8024 Z M242.8769,426.6978 C242.8769,419.9681 241.0785,416.6033 237.4816,416.6033 C233.8615,416.6033 232.0513,419.9681 232.0513,426.6978 C232.0513,433.4044 233.8615,436.7576 237.4816,436.7576 C241.0785,436.7576 242.8769,433.4044 242.8769,426.6978 Z M285.5005,438.7765 L282.7158,438.7765 L272.5169,421.3026 C271.9832,420.3742 271.4727,419.4113 270.9854,418.4135 L270.9157,418.4135 C270.9854,419.4577 271.0201,420.4439 271.0201,421.3722 L271.0201,438.7765 L268.3399,438.7765 L268.3399,414.8280 L271.7164,414.8280 L281.4976,431.6407 C282.0313,432.5457 282.4838,433.3927 282.8551,434.1818 L282.9247,434.1818 C282.8551,433.3464 282.8204,432.4645 282.8204,431.5364 L282.8204,414.8280 L285.5005,414.8280 L285.5005,438.7765 Z M319.6309,416.9514 L314.8620,416.9514 L314.8620,438.7765 L311.6597,438.7765 L311.6597,416.9514 L306.8908,416.9514 L306.8908,414.8280 L319.6309,414.8280 L319.6309,416.9514 Z M356.4415,438.7765 L353.1346,438.7765 L350.8720,431.6058 L342.6572,431.6058 L340.3249,438.7765 L337.4011,438.7765 L345.5115,414.8280 L348.3657,414.8280 L356.4415,438.7765 Z M350.3499,429.7262 L347.5652,420.6121 C347.1706,419.3591 346.9385,418.3902 346.8691,417.7172 L346.7994,417.7172 C346.6601,418.3669 346.4164,419.3358 346.0684,420.6121 L343.2140,429.7262 L350.3499,429.7262 Z M392.6601,432.3021 C392.6601,434.5995 391.8363,436.3398 390.1887,437.5233 C388.6804,438.5908 386.6151,439.1246 383.9928,439.1246 C381.2544,439.1246 379.0731,438.6837 377.4488,437.8018 L377.4488,415.8028 C378.9804,414.9210 381.0573,414.4800 383.6794,414.4800 C386.2321,414.4800 388.2394,415.0370 389.7013,416.1508 C391.0705,417.2414 391.7552,418.6802 391.7552,420.4671 C391.7552,422.0451 391.2445,423.3446 390.2234,424.3657 C389.3882,425.2475 388.3438,425.8045 387.0907,426.0366 L387.0907,426.1060 C388.4367,426.3614 389.6433,426.9879 390.7108,427.9859 C392.0103,429.1925 392.6601,430.6313 392.6601,432.3021 Z M388.6571,420.7281 C388.6571,417.8159 386.9863,416.3596 383.6447,416.3596 C382.5076,416.3596 381.4517,416.5337 380.4770,416.8817 L380.4770,425.3752 L382.0435,425.3752 C384.4569,425.3752 386.1625,425.0038 387.1603,424.2671 C388.1581,423.5245 388.6571,422.3468 388.6571,420.7281 Z M389.4229,432.3369 C389.4229,430.4572 388.8428,429.0939 387.6824,428.2468 C386.5222,427.3999 384.6542,426.9764 382.0782,426.9764 L380.4770,426.9764 L380.4770,436.5139 C381.3588,436.8852 382.4843,437.0709 383.8535,437.0709 C387.5664,437.0709 389.4229,435.4929 389.4229,432.3369 Z M417.9839,438.7765 L414.7814,438.7765 L414.7814,414.8280 L417.9839,414.8280 L417.9839,438.7765 Z M451.6616,438.7765 L441.2538,438.7765 L441.2538,414.8280 L444.4562,414.8280 L444.4562,436.6532 L451.6616,436.6532 L451.6616,438.7765 Z M476.4284,438.7765 L473.2260,438.7765 L473.2260,414.8280 L476.4284,414.8280 L476.4284,438.7765 Z M515.7451,426.5587 C515.7451,430.4109 514.9562,433.4276 513.3781,435.6090 C511.6841,437.9527 509.2011,439.1246 505.9290,439.1246 C503.1676,439.1246 501.0559,438.6952 499.5940,437.8367 L499.5940,415.8028 C501.1952,414.9210 503.2605,414.4800 505.7899,414.4800 C509.0387,414.4800 511.5217,415.5707 513.2390,417.7521 C514.9096,419.8405 515.7451,422.7761 515.7451,426.5587 Z M512.4383,426.5238 C512.4383,419.8637 510.1989,416.5337 505.7202,416.5337 C504.5367,416.5337 503.5505,416.6962 502.7615,417.0210 L502.7615,436.4095 C503.5273,436.7112 504.5251,436.8619 505.7550,436.8619 C508.1220,436.8619 509.8392,435.9801 510.9067,434.2165 C511.9278,432.5689 512.4383,430.0046 512.4383,426.5238 Z M554.6095,438.7765 L551.3027,438.7765 L549.0400,431.6058 L540.8252,431.6058 L538.4929,438.7765 L535.5691,438.7765 L543.6795,414.8280 L546.5337,414.8280 L554.6095,438.7765 Z M548.5179,429.7262 L545.7332,420.6121 C545.3386,419.3591 545.1066,418.3902 545.0371,417.7172 L544.9674,417.7172 C544.8281,418.3669 544.5845,419.3358 544.2364,420.6121 L541.3820,429.7262 L548.5179,429.7262 Z M591.7679,426.5587 C591.7679,430.4109 590.9790,433.4276 589.4009,435.6090 C587.7070,437.9527 585.2239,439.1246 581.9518,439.1246 C579.1904,439.1246 577.0787,438.6952 575.6168,437.8367 L575.6168,415.8028 C577.2180,414.9210 579.2833,414.4800 581.8127,414.4800 C585.0615,414.4800 587.5446,415.5707 589.2618,417.7521 C590.9325,419.8405 591.7679,422.7761 591.7679,426.5587 Z M588.4611,426.5238 C588.4611,419.8637 586.2218,416.5337 581.7431,416.5337 C580.5596,416.5337 579.5734,416.6962 578.7843,417.0210 L578.7843,436.4095 C579.5501,436.7112 580.5479,436.8619 581.7778,436.8619 C584.1448,436.8619 585.8621,435.9801 586.9295,434.2165 C587.9506,432.5689 588.4611,430.0046 588.4611,426.5238 Z M625.0978,438.7765 L613.9938,438.7765 L613.9938,414.8280 L625.0978,414.8280 L625.0978,416.9514 L617.1961,416.9514 L617.1961,425.3403 L624.2971,425.3403 L624.2971,427.4636 L617.1961,427.4636 L617.1961,436.6532 L625.0978,436.6532 L625.0978,438.7765 Z"
       style="fill-rule: evenodd; fill: #dccf70;"
       id="path5" />
  </g>
</svg>